<mxfile host="Electron" modified="2023-10-04T23:16:54.985Z" agent="Mozilla/5.0 (Windows NT 10.0; Win64; x64) AppleWebKit/537.36 (KHTML, like Gecko) draw.io/22.0.2 Chrome/114.0.5735.289 Electron/25.8.4 Safari/537.36" etag="DBgggGv5EQPKNWQRc2iw" version="22.0.2" type="device" pages="6">
  <diagram id="5wuLk7icLv9Qr6mCE33a" name="Notes">
    <mxGraphModel dx="7325" dy="3785" grid="1" gridSize="10" guides="1" tooltips="1" connect="1" arrows="1" fold="1" page="1" pageScale="1" pageWidth="1654" pageHeight="1169" math="0" shadow="0">
      <root>
        <mxCell id="0" />
        <mxCell id="1" parent="0" />
        <mxCell id="UJ2-rwfPvn-iGrl0GXSG-1" value="Notes" style="shape=table;startSize=30;container=1;collapsible=0;childLayout=tableLayout;strokeColor=default;fontSize=16;" parent="1" vertex="1">
          <mxGeometry x="-4840" y="-2240" width="290" height="440.00000000000045" as="geometry" />
        </mxCell>
        <mxCell id="UJ2-rwfPvn-iGrl0GXSG-2" value="" style="shape=tableRow;horizontal=0;startSize=0;swimlaneHead=0;swimlaneBody=0;strokeColor=inherit;top=0;left=0;bottom=0;right=0;collapsible=0;dropTarget=0;fillColor=none;points=[[0,0.5],[1,0.5]];portConstraint=eastwest;fontSize=16;" parent="UJ2-rwfPvn-iGrl0GXSG-1" vertex="1">
          <mxGeometry y="30" width="290" height="80" as="geometry" />
        </mxCell>
        <mxCell id="UJ2-rwfPvn-iGrl0GXSG-3" value="Aesthetic" style="shape=partialRectangle;html=1;whiteSpace=wrap;connectable=0;strokeColor=inherit;overflow=hidden;fillColor=default;top=0;left=0;bottom=0;right=0;pointerEvents=1;fontSize=16;" parent="UJ2-rwfPvn-iGrl0GXSG-2" vertex="1">
          <mxGeometry width="145" height="80" as="geometry">
            <mxRectangle width="145" height="80" as="alternateBounds" />
          </mxGeometry>
        </mxCell>
        <mxCell id="UJ2-rwfPvn-iGrl0GXSG-4" value="Dark Mode&lt;br style=&quot;font-size: 16px;&quot;&gt;Light Mode" style="shape=partialRectangle;html=1;whiteSpace=wrap;connectable=0;strokeColor=inherit;overflow=hidden;fillColor=default;top=0;left=0;bottom=0;right=0;pointerEvents=1;fontSize=16;" parent="UJ2-rwfPvn-iGrl0GXSG-2" vertex="1">
          <mxGeometry x="145" width="145" height="80" as="geometry">
            <mxRectangle width="145" height="80" as="alternateBounds" />
          </mxGeometry>
        </mxCell>
        <mxCell id="UJ2-rwfPvn-iGrl0GXSG-5" value="" style="shape=tableRow;horizontal=0;startSize=0;swimlaneHead=0;swimlaneBody=0;strokeColor=inherit;top=0;left=0;bottom=0;right=0;collapsible=0;dropTarget=0;fillColor=none;points=[[0,0.5],[1,0.5]];portConstraint=eastwest;fontSize=16;" parent="UJ2-rwfPvn-iGrl0GXSG-1" vertex="1">
          <mxGeometry y="110" width="290" height="50" as="geometry" />
        </mxCell>
        <mxCell id="UJ2-rwfPvn-iGrl0GXSG-6" value="User Accounts" style="shape=partialRectangle;html=1;whiteSpace=wrap;connectable=0;strokeColor=inherit;overflow=hidden;fillColor=default;top=0;left=0;bottom=0;right=0;pointerEvents=1;fontSize=16;" parent="UJ2-rwfPvn-iGrl0GXSG-5" vertex="1">
          <mxGeometry width="145" height="50" as="geometry">
            <mxRectangle width="145" height="50" as="alternateBounds" />
          </mxGeometry>
        </mxCell>
        <mxCell id="UJ2-rwfPvn-iGrl0GXSG-7" value="PII??????" style="shape=partialRectangle;html=1;whiteSpace=wrap;connectable=0;strokeColor=inherit;overflow=hidden;fillColor=default;top=0;left=0;bottom=0;right=0;pointerEvents=1;fontSize=16;" parent="UJ2-rwfPvn-iGrl0GXSG-5" vertex="1">
          <mxGeometry x="145" width="145" height="50" as="geometry">
            <mxRectangle width="145" height="50" as="alternateBounds" />
          </mxGeometry>
        </mxCell>
        <mxCell id="UJ2-rwfPvn-iGrl0GXSG-8" value="" style="shape=tableRow;horizontal=0;startSize=0;swimlaneHead=0;swimlaneBody=0;strokeColor=inherit;top=0;left=0;bottom=0;right=0;collapsible=0;dropTarget=0;fillColor=none;points=[[0,0.5],[1,0.5]];portConstraint=eastwest;fontSize=16;" parent="UJ2-rwfPvn-iGrl0GXSG-1" vertex="1">
          <mxGeometry y="160" width="290" height="70" as="geometry" />
        </mxCell>
        <mxCell id="UJ2-rwfPvn-iGrl0GXSG-9" value="Login via 3rd Party" style="shape=partialRectangle;html=1;whiteSpace=wrap;connectable=0;strokeColor=inherit;overflow=hidden;fillColor=default;top=0;left=0;bottom=0;right=0;pointerEvents=1;fontSize=16;" parent="UJ2-rwfPvn-iGrl0GXSG-8" vertex="1">
          <mxGeometry width="145" height="70" as="geometry">
            <mxRectangle width="145" height="70" as="alternateBounds" />
          </mxGeometry>
        </mxCell>
        <mxCell id="UJ2-rwfPvn-iGrl0GXSG-10" value="Wordpress&lt;br&gt;Discord" style="shape=partialRectangle;html=1;whiteSpace=wrap;connectable=0;strokeColor=inherit;overflow=hidden;fillColor=default;top=0;left=0;bottom=0;right=0;pointerEvents=1;fontSize=16;" parent="UJ2-rwfPvn-iGrl0GXSG-8" vertex="1">
          <mxGeometry x="145" width="145" height="70" as="geometry">
            <mxRectangle width="145" height="70" as="alternateBounds" />
          </mxGeometry>
        </mxCell>
        <mxCell id="UJ2-rwfPvn-iGrl0GXSG-11" style="shape=tableRow;horizontal=0;startSize=0;swimlaneHead=0;swimlaneBody=0;strokeColor=inherit;top=0;left=0;bottom=0;right=0;collapsible=0;dropTarget=0;fillColor=none;points=[[0,0.5],[1,0.5]];portConstraint=eastwest;fontSize=16;" parent="UJ2-rwfPvn-iGrl0GXSG-1" vertex="1">
          <mxGeometry y="230" width="290" height="70" as="geometry" />
        </mxCell>
        <mxCell id="UJ2-rwfPvn-iGrl0GXSG-12" value="Admin Rights" style="shape=partialRectangle;html=1;whiteSpace=wrap;connectable=0;strokeColor=inherit;overflow=hidden;fillColor=default;top=0;left=0;bottom=0;right=0;pointerEvents=1;fontSize=16;" parent="UJ2-rwfPvn-iGrl0GXSG-11" vertex="1">
          <mxGeometry width="145" height="70" as="geometry">
            <mxRectangle width="145" height="70" as="alternateBounds" />
          </mxGeometry>
        </mxCell>
        <mxCell id="UJ2-rwfPvn-iGrl0GXSG-13" value="Split Django and Author Site" style="shape=partialRectangle;html=1;whiteSpace=wrap;connectable=0;strokeColor=inherit;overflow=hidden;fillColor=default;top=0;left=0;bottom=0;right=0;pointerEvents=1;fontSize=16;" parent="UJ2-rwfPvn-iGrl0GXSG-11" vertex="1">
          <mxGeometry x="145" width="145" height="70" as="geometry">
            <mxRectangle width="145" height="70" as="alternateBounds" />
          </mxGeometry>
        </mxCell>
        <mxCell id="7M0s-lRB6EU5XcfnMeHS-1" style="shape=tableRow;horizontal=0;startSize=0;swimlaneHead=0;swimlaneBody=0;strokeColor=inherit;top=0;left=0;bottom=0;right=0;collapsible=0;dropTarget=0;fillColor=none;points=[[0,0.5],[1,0.5]];portConstraint=eastwest;fontSize=16;" parent="UJ2-rwfPvn-iGrl0GXSG-1" vertex="1">
          <mxGeometry y="300" width="290" height="70" as="geometry" />
        </mxCell>
        <mxCell id="7M0s-lRB6EU5XcfnMeHS-2" value="Patreon" style="shape=partialRectangle;html=1;whiteSpace=wrap;connectable=0;strokeColor=inherit;overflow=hidden;fillColor=default;top=0;left=0;bottom=0;right=0;pointerEvents=1;fontSize=16;" parent="7M0s-lRB6EU5XcfnMeHS-1" vertex="1">
          <mxGeometry width="145" height="70" as="geometry">
            <mxRectangle width="145" height="70" as="alternateBounds" />
          </mxGeometry>
        </mxCell>
        <mxCell id="7M0s-lRB6EU5XcfnMeHS-3" value="Access" style="shape=partialRectangle;html=1;whiteSpace=wrap;connectable=0;strokeColor=inherit;overflow=hidden;fillColor=default;top=0;left=0;bottom=0;right=0;pointerEvents=1;fontSize=16;" parent="7M0s-lRB6EU5XcfnMeHS-1" vertex="1">
          <mxGeometry x="145" width="145" height="70" as="geometry">
            <mxRectangle width="145" height="70" as="alternateBounds" />
          </mxGeometry>
        </mxCell>
        <mxCell id="M8oy_sJxEttxuBHBGR45-1" style="shape=tableRow;horizontal=0;startSize=0;swimlaneHead=0;swimlaneBody=0;strokeColor=inherit;top=0;left=0;bottom=0;right=0;collapsible=0;dropTarget=0;fillColor=none;points=[[0,0.5],[1,0.5]];portConstraint=eastwest;fontSize=16;" parent="UJ2-rwfPvn-iGrl0GXSG-1" vertex="1">
          <mxGeometry y="370" width="290" height="70" as="geometry" />
        </mxCell>
        <mxCell id="M8oy_sJxEttxuBHBGR45-2" value="OAUTH" style="shape=partialRectangle;html=1;whiteSpace=wrap;connectable=0;strokeColor=inherit;overflow=hidden;fillColor=default;top=0;left=0;bottom=0;right=0;pointerEvents=1;fontSize=16;" parent="M8oy_sJxEttxuBHBGR45-1" vertex="1">
          <mxGeometry width="145" height="70" as="geometry">
            <mxRectangle width="145" height="70" as="alternateBounds" />
          </mxGeometry>
        </mxCell>
        <mxCell id="M8oy_sJxEttxuBHBGR45-3" value="Patreon&lt;br&gt;Discord&lt;br&gt;Wordpress" style="shape=partialRectangle;html=1;whiteSpace=wrap;connectable=0;strokeColor=inherit;overflow=hidden;fillColor=default;top=0;left=0;bottom=0;right=0;pointerEvents=1;fontSize=16;" parent="M8oy_sJxEttxuBHBGR45-1" vertex="1">
          <mxGeometry x="145" width="145" height="70" as="geometry">
            <mxRectangle width="145" height="70" as="alternateBounds" />
          </mxGeometry>
        </mxCell>
      </root>
    </mxGraphModel>
  </diagram>
  <diagram name="Story Structure" id="c4acf3e9-155e-7222-9cf6-157b1a14988f">
    <mxGraphModel dx="5886" dy="5085" grid="1" gridSize="10" guides="1" tooltips="1" connect="1" arrows="1" fold="1" page="1" pageScale="1" pageWidth="1654" pageHeight="1169" background="none" math="0" shadow="0">
      <root>
        <mxCell id="0" />
        <mxCell id="1" parent="0" />
        <mxCell id="DJ6YM_CZNNagd6zpl_L4-29" value="&lt;h1&gt;&lt;b&gt;&lt;u&gt;Type&lt;/u&gt;&lt;/b&gt;&lt;/h1&gt;" style="rounded=0;whiteSpace=wrap;html=1;fillColor=none;verticalAlign=top;" parent="1" vertex="1">
          <mxGeometry x="-2668" y="-3040" width="280" height="400" as="geometry" />
        </mxCell>
        <mxCell id="DJ6YM_CZNNagd6zpl_L4-30" value="&lt;h1&gt;&lt;b&gt;&lt;u&gt;Category&lt;/u&gt;&lt;/b&gt;&lt;/h1&gt;" style="rounded=0;whiteSpace=wrap;html=1;fillColor=none;verticalAlign=top;" parent="1" vertex="1">
          <mxGeometry x="-3240" y="-2780" width="490" height="270" as="geometry" />
        </mxCell>
        <mxCell id="DJ6YM_CZNNagd6zpl_L4-96" style="edgeStyle=orthogonalEdgeStyle;rounded=0;orthogonalLoop=1;jettySize=auto;html=1;entryX=0;entryY=0.5;entryDx=0;entryDy=0;" parent="1" source="DJ6YM_CZNNagd6zpl_L4-83" edge="1">
          <mxGeometry relative="1" as="geometry" />
        </mxCell>
        <mxCell id="5d2195bd80daf111-15" value="&lt;p style=&quot;margin:0px;margin-top:4px;text-align:center;&quot;&gt;&lt;b&gt;Serial&lt;/b&gt;&lt;/p&gt;&lt;hr size=&quot;1&quot;&gt;&lt;p style=&quot;margin:0px;margin-left:4px;&quot;&gt;+ field1: Type&lt;br&gt;+ field2: Type&lt;/p&gt;&lt;hr size=&quot;1&quot;&gt;&lt;p style=&quot;margin:0px;margin-left:4px;&quot;&gt;+ method1(Type): Type&lt;br&gt;+ method2(Type, Type): Type&lt;/p&gt;" style="verticalAlign=top;align=left;overflow=fill;fontSize=12;fontFamily=Helvetica;html=1;rounded=0;shadow=0;comic=0;labelBackgroundColor=none;strokeWidth=1" parent="1" vertex="1">
          <mxGeometry x="-2623" y="-2810" width="190" height="140" as="geometry" />
        </mxCell>
        <mxCell id="DJ6YM_CZNNagd6zpl_L4-17" style="edgeStyle=orthogonalEdgeStyle;rounded=0;orthogonalLoop=1;jettySize=auto;html=1;entryX=0;entryY=0.5;entryDx=0;entryDy=0;exitX=1;exitY=0.285;exitDx=0;exitDy=0;exitPerimeter=0;" parent="1" source="5d2195bd80daf111-18" target="DJ6YM_CZNNagd6zpl_L4-29" edge="1">
          <mxGeometry relative="1" as="geometry" />
        </mxCell>
        <mxCell id="LBKzw_JlbSK5Q4wUVQRv-9" value="Type" style="edgeLabel;html=1;align=center;verticalAlign=middle;resizable=0;points=[];rotation=0;" parent="DJ6YM_CZNNagd6zpl_L4-17" vertex="1" connectable="0">
          <mxGeometry x="0.494" y="-2" relative="1" as="geometry">
            <mxPoint x="37" as="offset" />
          </mxGeometry>
        </mxCell>
        <mxCell id="DJ6YM_CZNNagd6zpl_L4-32" style="edgeStyle=orthogonalEdgeStyle;rounded=0;orthogonalLoop=1;jettySize=auto;html=1;entryX=0.5;entryY=1;entryDx=0;entryDy=0;exitX=0.5;exitY=0;exitDx=0;exitDy=0;" parent="1" source="5d2195bd80daf111-18" target="DJ6YM_CZNNagd6zpl_L4-10" edge="1">
          <mxGeometry relative="1" as="geometry">
            <mxPoint x="-2780" y="-2050" as="sourcePoint" />
          </mxGeometry>
        </mxCell>
        <mxCell id="LBKzw_JlbSK5Q4wUVQRv-2" value="Story" style="edgeLabel;html=1;align=center;verticalAlign=middle;resizable=0;points=[];rotation=-90;" parent="DJ6YM_CZNNagd6zpl_L4-32" vertex="1" connectable="0">
          <mxGeometry x="0.0333" y="2" relative="1" as="geometry">
            <mxPoint as="offset" />
          </mxGeometry>
        </mxCell>
        <mxCell id="5d2195bd80daf111-19" value="&lt;p style=&quot;margin:0px;margin-top:4px;text-align:center;&quot;&gt;&lt;b&gt;Series&lt;/b&gt;&lt;/p&gt;&lt;hr size=&quot;1&quot;&gt;&lt;p style=&quot;margin:0px;margin-left:4px;&quot;&gt;+ title: String&lt;br&gt;+ field2: Type&lt;/p&gt;&lt;hr size=&quot;1&quot;&gt;&lt;p style=&quot;margin:0px;margin-left:4px;&quot;&gt;+ method1(Type): Type&lt;br&gt;+ method2(Type, Type): Type&lt;/p&gt;" style="verticalAlign=top;align=left;overflow=fill;fontSize=12;fontFamily=Helvetica;html=1;rounded=0;shadow=0;comic=0;labelBackgroundColor=none;strokeWidth=1" parent="1" vertex="1">
          <mxGeometry x="-2623" y="-2980" width="190" height="140" as="geometry" />
        </mxCell>
        <mxCell id="DJ6YM_CZNNagd6zpl_L4-10" value="&lt;p style=&quot;margin:0px;margin-top:4px;text-align:center;&quot;&gt;&lt;b&gt;Chapter&lt;/b&gt;&lt;/p&gt;&lt;hr size=&quot;1&quot;&gt;&lt;p style=&quot;margin:0px;margin-left:4px;&quot;&gt;+ title: String&lt;br&gt;+ chapter_num: Int&lt;/p&gt;&lt;p style=&quot;margin:0px;margin-left:4px;&quot;&gt;+ view: String&lt;br&gt;&lt;/p&gt;&lt;p style=&quot;margin:0px;margin-left:4px;&quot;&gt;+ story: String&lt;/p&gt;&lt;p style=&quot;margin:0px;margin-left:4px;&quot;&gt;+ c_u_id: Int&lt;/p&gt;&lt;p style=&quot;margin:0px;margin-left:4px;&quot;&gt;+ reviews: Type&lt;/p&gt;&lt;hr size=&quot;1&quot;&gt;&lt;p style=&quot;margin:0px;margin-left:4px;&quot;&gt;+ method1(Type): Type&lt;br&gt;+ method2(Type, Type): Type&lt;/p&gt;" style="verticalAlign=top;align=left;overflow=fill;fontSize=12;fontFamily=Helvetica;html=1;rounded=0;shadow=0;comic=0;labelBackgroundColor=none;strokeWidth=4;strokeColor=#000033;" parent="1" vertex="1">
          <mxGeometry x="-3280" y="-3430" width="190" height="170" as="geometry" />
        </mxCell>
        <mxCell id="DJ6YM_CZNNagd6zpl_L4-34" style="edgeStyle=orthogonalEdgeStyle;rounded=0;orthogonalLoop=1;jettySize=auto;html=1;exitX=0;exitY=0.5;exitDx=0;exitDy=0;entryX=1;entryY=0.5;entryDx=0;entryDy=0;startArrow=none;startFill=0;endArrow=classic;endFill=1;fillColor=#6a00ff;strokeColor=#330066;strokeWidth=4;" parent="1" source="DJ6YM_CZNNagd6zpl_L4-11" target="DJ6YM_CZNNagd6zpl_L4-10" edge="1">
          <mxGeometry relative="1" as="geometry">
            <mxPoint x="-1720" y="-1540" as="targetPoint" />
          </mxGeometry>
        </mxCell>
        <mxCell id="LBKzw_JlbSK5Q4wUVQRv-3" value="View" style="edgeLabel;html=1;align=center;verticalAlign=middle;resizable=0;points=[];" parent="DJ6YM_CZNNagd6zpl_L4-34" vertex="1" connectable="0">
          <mxGeometry x="0.6703" y="-1" relative="1" as="geometry">
            <mxPoint as="offset" />
          </mxGeometry>
        </mxCell>
        <mxCell id="DJ6YM_CZNNagd6zpl_L4-97" style="edgeStyle=orthogonalEdgeStyle;rounded=0;orthogonalLoop=1;jettySize=auto;html=1;exitX=1;exitY=0.5;exitDx=0;exitDy=0;entryX=0;entryY=0.5;entryDx=0;entryDy=0;strokeColor=#990099;strokeWidth=4;" parent="1" source="DJ6YM_CZNNagd6zpl_L4-11" target="DJ6YM_CZNNagd6zpl_L4-38" edge="1">
          <mxGeometry relative="1" as="geometry" />
        </mxCell>
        <mxCell id="LBKzw_JlbSK5Q4wUVQRv-1" value="ViewTypes" style="edgeLabel;html=1;align=center;verticalAlign=middle;resizable=0;points=[];rotation=0;" parent="DJ6YM_CZNNagd6zpl_L4-97" vertex="1" connectable="0">
          <mxGeometry x="0.3976" y="2" relative="1" as="geometry">
            <mxPoint x="-35" y="2" as="offset" />
          </mxGeometry>
        </mxCell>
        <mxCell id="DJ6YM_CZNNagd6zpl_L4-23" value="&lt;p style=&quot;margin:0px;margin-top:4px;text-align:center;&quot;&gt;&lt;b&gt;Fanfiction&lt;/b&gt;&lt;/p&gt;&lt;hr size=&quot;1&quot;&gt;&lt;p style=&quot;margin:0px;margin-left:4px;&quot;&gt;+ field1: Type&lt;br&gt;+ field2: Type&lt;/p&gt;&lt;hr size=&quot;1&quot;&gt;&lt;p style=&quot;margin:0px;margin-left:4px;&quot;&gt;+ method1(Type): Type&lt;br&gt;+ method2(Type, Type): Type&lt;/p&gt;" style="verticalAlign=top;align=left;overflow=fill;fontSize=12;fontFamily=Helvetica;html=1;rounded=0;shadow=0;comic=0;labelBackgroundColor=none;strokeWidth=1;fillColor=#18141D;" parent="1" vertex="1">
          <mxGeometry x="-2980" y="-2704.96" width="190" height="140" as="geometry" />
        </mxCell>
        <mxCell id="DJ6YM_CZNNagd6zpl_L4-25" value="&lt;p style=&quot;margin:0px;margin-top:4px;text-align:center;&quot;&gt;&lt;b&gt;Original&lt;/b&gt;&lt;/p&gt;&lt;hr size=&quot;1&quot;&gt;&lt;p style=&quot;margin:0px;margin-left:4px;&quot;&gt;+ field1: Type&lt;br&gt;+ field2: Type&lt;/p&gt;&lt;hr size=&quot;1&quot;&gt;&lt;p style=&quot;margin:0px;margin-left:4px;&quot;&gt;+ method1(Type): Type&lt;br&gt;+ method2(Type, Type): Type&lt;/p&gt;" style="verticalAlign=top;align=left;overflow=fill;fontSize=12;fontFamily=Helvetica;html=1;rounded=0;shadow=0;comic=0;labelBackgroundColor=none;strokeWidth=1" parent="1" vertex="1">
          <mxGeometry x="-3200" y="-2704.96" width="190" height="140" as="geometry" />
        </mxCell>
        <mxCell id="DJ6YM_CZNNagd6zpl_L4-35" value="View Types" style="swimlane;fontStyle=0;childLayout=stackLayout;horizontal=1;startSize=30;horizontalStack=0;resizeParent=1;resizeParentMax=0;resizeLast=0;collapsible=1;marginBottom=0;whiteSpace=wrap;html=1;fillColor=#18141D;fillStyle=solid;strokeWidth=4;strokeColor=#990099;" parent="1" vertex="1">
          <mxGeometry x="-2218" y="-3362.5" width="140" height="180" as="geometry">
            <mxRectangle x="940" y="-440" width="60" height="30" as="alternateBounds" />
          </mxGeometry>
        </mxCell>
        <mxCell id="DJ6YM_CZNNagd6zpl_L4-36" value="Public" style="text;strokeColor=none;fillColor=default;align=left;verticalAlign=middle;spacingLeft=4;spacingRight=4;overflow=hidden;points=[[0,0.5],[1,0.5]];portConstraint=eastwest;rotatable=0;whiteSpace=wrap;html=1;" parent="DJ6YM_CZNNagd6zpl_L4-35" vertex="1">
          <mxGeometry y="30" width="140" height="30" as="geometry" />
        </mxCell>
        <mxCell id="DJ6YM_CZNNagd6zpl_L4-37" value="Password Protected" style="text;strokeColor=none;fillColor=default;align=left;verticalAlign=middle;spacingLeft=4;spacingRight=4;overflow=hidden;points=[[0,0.5],[1,0.5]];portConstraint=eastwest;rotatable=0;whiteSpace=wrap;html=1;" parent="DJ6YM_CZNNagd6zpl_L4-35" vertex="1">
          <mxGeometry y="60" width="140" height="30" as="geometry" />
        </mxCell>
        <mxCell id="DJ6YM_CZNNagd6zpl_L4-38" value="Patreon" style="text;strokeColor=none;fillColor=default;align=left;verticalAlign=middle;spacingLeft=4;spacingRight=4;overflow=hidden;points=[[0,0.5],[1,0.5]];portConstraint=eastwest;rotatable=0;whiteSpace=wrap;html=1;" parent="DJ6YM_CZNNagd6zpl_L4-35" vertex="1">
          <mxGeometry y="90" width="140" height="30" as="geometry" />
        </mxCell>
        <mxCell id="DJ6YM_CZNNagd6zpl_L4-39" value="Role Only" style="text;strokeColor=none;fillColor=default;align=left;verticalAlign=middle;spacingLeft=4;spacingRight=4;overflow=hidden;points=[[0,0.5],[1,0.5]];portConstraint=eastwest;rotatable=0;whiteSpace=wrap;html=1;" parent="DJ6YM_CZNNagd6zpl_L4-35" vertex="1">
          <mxGeometry y="120" width="140" height="30" as="geometry" />
        </mxCell>
        <mxCell id="DJ6YM_CZNNagd6zpl_L4-40" value="Author Only" style="text;strokeColor=none;fillColor=default;align=left;verticalAlign=middle;spacingLeft=4;spacingRight=4;overflow=hidden;points=[[0,0.5],[1,0.5]];portConstraint=eastwest;rotatable=0;whiteSpace=wrap;html=1;" parent="DJ6YM_CZNNagd6zpl_L4-35" vertex="1">
          <mxGeometry y="150" width="140" height="30" as="geometry" />
        </mxCell>
        <mxCell id="DJ6YM_CZNNagd6zpl_L4-41" value="Public" style="swimlane;fontStyle=0;childLayout=stackLayout;horizontal=1;startSize=30;horizontalStack=0;resizeParent=1;resizeParentMax=0;resizeLast=0;collapsible=1;marginBottom=0;whiteSpace=wrap;html=1;fillColor=#18141D;fillStyle=solid;" parent="1" vertex="1">
          <mxGeometry x="-1898" y="-3450" width="140" height="60" as="geometry" />
        </mxCell>
        <mxCell id="DJ6YM_CZNNagd6zpl_L4-42" value="Anyone can view" style="text;strokeColor=none;fillColor=none;align=left;verticalAlign=middle;spacingLeft=4;spacingRight=4;overflow=hidden;points=[[0,0.5],[1,0.5]];portConstraint=eastwest;rotatable=0;whiteSpace=wrap;html=1;" parent="DJ6YM_CZNNagd6zpl_L4-41" vertex="1">
          <mxGeometry y="30" width="140" height="30" as="geometry" />
        </mxCell>
        <mxCell id="DJ6YM_CZNNagd6zpl_L4-45" value="Password" style="swimlane;fontStyle=0;childLayout=stackLayout;horizontal=1;startSize=30;horizontalStack=0;resizeParent=1;resizeParentMax=0;resizeLast=0;collapsible=1;marginBottom=0;whiteSpace=wrap;html=1;" parent="1" vertex="1">
          <mxGeometry x="-1898" y="-3380" width="140" height="70" as="geometry" />
        </mxCell>
        <mxCell id="DJ6YM_CZNNagd6zpl_L4-46" value="Anyone with the password can view" style="text;strokeColor=none;fillColor=#18141D;align=left;verticalAlign=middle;spacingLeft=4;spacingRight=4;overflow=hidden;points=[[0,0.5],[1,0.5]];portConstraint=eastwest;rotatable=0;whiteSpace=wrap;html=1;fillStyle=solid;" parent="DJ6YM_CZNNagd6zpl_L4-45" vertex="1">
          <mxGeometry y="30" width="140" height="40" as="geometry" />
        </mxCell>
        <mxCell id="DJ6YM_CZNNagd6zpl_L4-47" style="edgeStyle=orthogonalEdgeStyle;rounded=0;orthogonalLoop=1;jettySize=auto;html=1;entryX=0;entryY=0.5;entryDx=0;entryDy=0;exitX=1;exitY=0.5;exitDx=0;exitDy=0;" parent="1" source="DJ6YM_CZNNagd6zpl_L4-36" target="DJ6YM_CZNNagd6zpl_L4-42" edge="1">
          <mxGeometry relative="1" as="geometry">
            <Array as="points">
              <mxPoint x="-2007.9999999999998" y="-3318" />
              <mxPoint x="-2007.9999999999998" y="-3405" />
            </Array>
          </mxGeometry>
        </mxCell>
        <mxCell id="DJ6YM_CZNNagd6zpl_L4-48" style="edgeStyle=orthogonalEdgeStyle;rounded=0;orthogonalLoop=1;jettySize=auto;html=1;entryX=0;entryY=0.5;entryDx=0;entryDy=0;exitX=1;exitY=0.5;exitDx=0;exitDy=0;" parent="1" source="DJ6YM_CZNNagd6zpl_L4-37" target="DJ6YM_CZNNagd6zpl_L4-46" edge="1">
          <mxGeometry relative="1" as="geometry" />
        </mxCell>
        <mxCell id="DJ6YM_CZNNagd6zpl_L4-55" value="Special Contributer" style="swimlane;fontStyle=0;childLayout=stackLayout;horizontal=1;startSize=30;horizontalStack=0;resizeParent=1;resizeParentMax=0;resizeLast=0;collapsible=1;marginBottom=0;whiteSpace=wrap;html=1;" parent="1" vertex="1">
          <mxGeometry x="-1963" y="-2942.5" width="160" height="60" as="geometry" />
        </mxCell>
        <mxCell id="DJ6YM_CZNNagd6zpl_L4-56" value="View All Available To Role" style="text;strokeColor=none;fillColor=#18141D;align=left;verticalAlign=middle;spacingLeft=4;spacingRight=4;overflow=hidden;points=[[0,0.5],[1,0.5]];portConstraint=eastwest;rotatable=0;whiteSpace=wrap;html=1;fillStyle=solid;" parent="DJ6YM_CZNNagd6zpl_L4-55" vertex="1">
          <mxGeometry y="30" width="160" height="30" as="geometry" />
        </mxCell>
        <mxCell id="DJ6YM_CZNNagd6zpl_L4-116" style="edgeStyle=orthogonalEdgeStyle;rounded=0;orthogonalLoop=1;jettySize=auto;html=1;entryX=0;entryY=0.5;entryDx=0;entryDy=0;exitX=0.5;exitY=0;exitDx=0;exitDy=0;" parent="1" source="DJ6YM_CZNNagd6zpl_L4-69" target="DJ6YM_CZNNagd6zpl_L4-39" edge="1">
          <mxGeometry relative="1" as="geometry" />
        </mxCell>
        <mxCell id="LBKzw_JlbSK5Q4wUVQRv-13" style="edgeStyle=orthogonalEdgeStyle;rounded=0;orthogonalLoop=1;jettySize=auto;html=1;entryX=1;entryY=0.75;entryDx=0;entryDy=0;startArrow=classic;startFill=1;endArrow=none;endFill=0;" parent="1" source="DJ6YM_CZNNagd6zpl_L4-77" target="DJ6YM_CZNNagd6zpl_L4-69" edge="1">
          <mxGeometry relative="1" as="geometry">
            <mxPoint x="-2148.0000000000005" y="-2780" as="targetPoint" />
            <Array as="points">
              <mxPoint x="-2090" y="-2663" />
              <mxPoint x="-2090" y="-2848" />
            </Array>
          </mxGeometry>
        </mxCell>
        <mxCell id="LBKzw_JlbSK5Q4wUVQRv-82" value="" style="edgeStyle=orthogonalEdgeStyle;rounded=0;orthogonalLoop=1;jettySize=auto;html=1;" parent="1" source="DJ6YM_CZNNagd6zpl_L4-77" target="LBKzw_JlbSK5Q4wUVQRv-81" edge="1">
          <mxGeometry relative="1" as="geometry" />
        </mxCell>
        <mxCell id="DJ6YM_CZNNagd6zpl_L4-77" value="AuthorPerms" style="swimlane;fontStyle=0;childLayout=stackLayout;horizontal=1;startSize=30;horizontalStack=0;resizeParent=1;resizeParentMax=0;resizeLast=0;collapsible=1;marginBottom=0;whiteSpace=wrap;html=1;fillColor=#18141D;fillStyle=solid;" parent="1" vertex="1">
          <mxGeometry x="-1963" y="-2752.5" width="160" height="210" as="geometry" />
        </mxCell>
        <mxCell id="DJ6YM_CZNNagd6zpl_L4-78" value="View All" style="text;strokeColor=none;fillColor=default;align=left;verticalAlign=middle;spacingLeft=4;spacingRight=4;overflow=hidden;points=[[0,0.5],[1,0.5]];portConstraint=eastwest;rotatable=0;whiteSpace=wrap;html=1;fillStyle=solid;" parent="DJ6YM_CZNNagd6zpl_L4-77" vertex="1">
          <mxGeometry y="30" width="160" height="30" as="geometry" />
        </mxCell>
        <mxCell id="DJ6YM_CZNNagd6zpl_L4-79" value="Edit All" style="text;strokeColor=none;fillColor=default;align=left;verticalAlign=middle;spacingLeft=4;spacingRight=4;overflow=hidden;points=[[0,0.5],[1,0.5]];portConstraint=eastwest;rotatable=0;whiteSpace=wrap;html=1;" parent="DJ6YM_CZNNagd6zpl_L4-77" vertex="1">
          <mxGeometry y="60" width="160" height="30" as="geometry" />
        </mxCell>
        <mxCell id="DJ6YM_CZNNagd6zpl_L4-80" value="Change Status All" style="text;strokeColor=none;fillColor=default;align=left;verticalAlign=middle;spacingLeft=4;spacingRight=4;overflow=hidden;points=[[0,0.5],[1,0.5]];portConstraint=eastwest;rotatable=0;whiteSpace=wrap;html=1;" parent="DJ6YM_CZNNagd6zpl_L4-77" vertex="1">
          <mxGeometry y="90" width="160" height="30" as="geometry" />
        </mxCell>
        <mxCell id="DJ6YM_CZNNagd6zpl_L4-81" value="Delete All" style="text;strokeColor=none;fillColor=default;align=left;verticalAlign=middle;spacingLeft=4;spacingRight=4;overflow=hidden;points=[[0,0.5],[1,0.5]];portConstraint=eastwest;rotatable=0;whiteSpace=wrap;html=1;" parent="DJ6YM_CZNNagd6zpl_L4-77" vertex="1">
          <mxGeometry y="120" width="160" height="30" as="geometry" />
        </mxCell>
        <mxCell id="DJ6YM_CZNNagd6zpl_L4-89" value="Manage Roles up to Editor" style="text;strokeColor=none;fillColor=default;align=left;verticalAlign=middle;spacingLeft=4;spacingRight=4;overflow=hidden;points=[[0,0.5],[1,0.5]];portConstraint=eastwest;rotatable=0;whiteSpace=wrap;html=1;" parent="DJ6YM_CZNNagd6zpl_L4-77" vertex="1">
          <mxGeometry y="150" width="160" height="30" as="geometry" />
        </mxCell>
        <mxCell id="a-bXBp3ErzStBLWRxPki-16" value="Post Stories" style="text;strokeColor=none;fillColor=default;align=left;verticalAlign=middle;spacingLeft=4;spacingRight=4;overflow=hidden;points=[[0,0.5],[1,0.5]];portConstraint=eastwest;rotatable=0;whiteSpace=wrap;html=1;" parent="DJ6YM_CZNNagd6zpl_L4-77" vertex="1">
          <mxGeometry y="180" width="160" height="30" as="geometry" />
        </mxCell>
        <mxCell id="LBKzw_JlbSK5Q4wUVQRv-8" style="edgeStyle=orthogonalEdgeStyle;rounded=0;orthogonalLoop=1;jettySize=auto;html=1;entryX=1;entryY=0.5;entryDx=0;entryDy=0;exitX=0;exitY=0.5;exitDx=0;exitDy=0;endArrow=none;endFill=0;startArrow=classic;startFill=1;" parent="1" source="DJ6YM_CZNNagd6zpl_L4-95" target="DJ6YM_CZNNagd6zpl_L4-83" edge="1">
          <mxGeometry relative="1" as="geometry">
            <Array as="points">
              <mxPoint x="-2110" y="-2475" />
              <mxPoint x="-2110" y="-2818" />
            </Array>
          </mxGeometry>
        </mxCell>
        <mxCell id="DJ6YM_CZNNagd6zpl_L4-90" value="AdminPerms" style="swimlane;fontStyle=0;childLayout=stackLayout;horizontal=1;startSize=30;horizontalStack=0;resizeParent=1;resizeParentMax=0;resizeLast=0;collapsible=1;marginBottom=0;whiteSpace=wrap;html=1;fillColor=#18141D;fillStyle=solid;" parent="1" vertex="1">
          <mxGeometry x="-1963" y="-2520" width="160" height="60" as="geometry" />
        </mxCell>
        <mxCell id="DJ6YM_CZNNagd6zpl_L4-95" value="Manage Roles" style="text;strokeColor=none;fillColor=default;align=left;verticalAlign=middle;spacingLeft=4;spacingRight=4;overflow=hidden;points=[[0,0.5],[1,0.5]];portConstraint=eastwest;rotatable=0;whiteSpace=wrap;html=1;" parent="DJ6YM_CZNNagd6zpl_L4-90" vertex="1">
          <mxGeometry y="30" width="160" height="30" as="geometry" />
        </mxCell>
        <mxCell id="DJ6YM_CZNNagd6zpl_L4-99" value="Role" style="swimlane;fontStyle=0;childLayout=stackLayout;horizontal=1;startSize=30;horizontalStack=0;resizeParent=1;resizeParentMax=0;resizeLast=0;collapsible=1;marginBottom=0;whiteSpace=wrap;html=1;" parent="1" vertex="1">
          <mxGeometry x="-1898" y="-3205" width="140" height="70" as="geometry" />
        </mxCell>
        <mxCell id="DJ6YM_CZNNagd6zpl_L4-100" value="Anyone with the role can view" style="text;strokeColor=none;fillColor=#18141D;align=left;verticalAlign=middle;spacingLeft=4;spacingRight=4;overflow=hidden;points=[[0,0.5],[1,0.5]];portConstraint=eastwest;rotatable=0;whiteSpace=wrap;html=1;fillStyle=solid;" parent="DJ6YM_CZNNagd6zpl_L4-99" vertex="1">
          <mxGeometry y="30" width="140" height="40" as="geometry" />
        </mxCell>
        <mxCell id="DJ6YM_CZNNagd6zpl_L4-98" style="edgeStyle=orthogonalEdgeStyle;rounded=0;orthogonalLoop=1;jettySize=auto;html=1;exitX=1;exitY=0.5;exitDx=0;exitDy=0;entryX=0;entryY=0.5;entryDx=0;entryDy=0;" parent="1" source="DJ6YM_CZNNagd6zpl_L4-39" target="DJ6YM_CZNNagd6zpl_L4-100" edge="1">
          <mxGeometry relative="1" as="geometry">
            <mxPoint x="-1768" y="-3240" as="targetPoint" />
          </mxGeometry>
        </mxCell>
        <mxCell id="DJ6YM_CZNNagd6zpl_L4-102" value="Author" style="swimlane;fontStyle=0;childLayout=stackLayout;horizontal=1;startSize=30;horizontalStack=0;resizeParent=1;resizeParentMax=0;resizeLast=0;collapsible=1;marginBottom=0;whiteSpace=wrap;html=1;" parent="1" vertex="1">
          <mxGeometry x="-1898" y="-3115" width="140" height="60" as="geometry" />
        </mxCell>
        <mxCell id="DJ6YM_CZNNagd6zpl_L4-103" value="Only Author Can View It" style="text;strokeColor=none;fillColor=#18141D;align=left;verticalAlign=middle;spacingLeft=4;spacingRight=4;overflow=hidden;points=[[0,0.5],[1,0.5]];portConstraint=eastwest;rotatable=0;whiteSpace=wrap;html=1;fillStyle=solid;" parent="DJ6YM_CZNNagd6zpl_L4-102" vertex="1">
          <mxGeometry y="30" width="140" height="30" as="geometry" />
        </mxCell>
        <mxCell id="DJ6YM_CZNNagd6zpl_L4-101" style="edgeStyle=orthogonalEdgeStyle;rounded=0;orthogonalLoop=1;jettySize=auto;html=1;entryX=0;entryY=0.5;entryDx=0;entryDy=0;exitX=1;exitY=0.5;exitDx=0;exitDy=0;" parent="1" source="DJ6YM_CZNNagd6zpl_L4-40" target="DJ6YM_CZNNagd6zpl_L4-103" edge="1">
          <mxGeometry relative="1" as="geometry">
            <mxPoint x="-1948" y="-3000" as="targetPoint" />
            <mxPoint x="-2128" y="-3115" as="sourcePoint" />
            <Array as="points">
              <mxPoint x="-2007.9999999999998" y="-3197" />
              <mxPoint x="-2007.9999999999998" y="-3070" />
            </Array>
          </mxGeometry>
        </mxCell>
        <mxCell id="DJ6YM_CZNNagd6zpl_L4-106" value="Patreon" style="swimlane;fontStyle=0;childLayout=stackLayout;horizontal=1;startSize=30;horizontalStack=0;resizeParent=1;resizeParentMax=0;resizeLast=0;collapsible=1;marginBottom=0;whiteSpace=wrap;html=1;" parent="1" vertex="1">
          <mxGeometry x="-1898" y="-3300" width="140" height="80" as="geometry" />
        </mxCell>
        <mxCell id="DJ6YM_CZNNagd6zpl_L4-107" value="Anyone logged in to patreon at a suffient tier can view" style="text;strokeColor=none;fillColor=#18141D;align=left;verticalAlign=middle;spacingLeft=4;spacingRight=4;overflow=hidden;points=[[0,0.5],[1,0.5]];portConstraint=eastwest;rotatable=0;whiteSpace=wrap;html=1;fillStyle=solid;" parent="DJ6YM_CZNNagd6zpl_L4-106" vertex="1">
          <mxGeometry y="30" width="140" height="50" as="geometry" />
        </mxCell>
        <mxCell id="DJ6YM_CZNNagd6zpl_L4-111" value="Public" style="swimlane;fontStyle=0;childLayout=stackLayout;horizontal=1;startSize=30;horizontalStack=0;resizeParent=1;resizeParentMax=0;resizeLast=0;collapsible=1;marginBottom=0;whiteSpace=wrap;html=1;fillColor=#18141D;fillStyle=solid;" parent="1" vertex="1">
          <mxGeometry x="-1963" y="-3022.5" width="160" height="60" as="geometry" />
        </mxCell>
        <mxCell id="DJ6YM_CZNNagd6zpl_L4-112" value="View Only Public Posts" style="text;strokeColor=none;fillColor=none;align=left;verticalAlign=middle;spacingLeft=4;spacingRight=4;overflow=hidden;points=[[0,0.5],[1,0.5]];portConstraint=eastwest;rotatable=0;whiteSpace=wrap;html=1;" parent="DJ6YM_CZNNagd6zpl_L4-111" vertex="1">
          <mxGeometry y="30" width="160" height="30" as="geometry" />
        </mxCell>
        <mxCell id="DJ6YM_CZNNagd6zpl_L4-49" style="edgeStyle=orthogonalEdgeStyle;rounded=0;orthogonalLoop=1;jettySize=auto;html=1;entryX=0;entryY=0.5;entryDx=0;entryDy=0;" parent="1" source="DJ6YM_CZNNagd6zpl_L4-38" target="DJ6YM_CZNNagd6zpl_L4-107" edge="1">
          <mxGeometry relative="1" as="geometry">
            <mxPoint x="-1788" y="-3280" as="targetPoint" />
          </mxGeometry>
        </mxCell>
        <mxCell id="DJ6YM_CZNNagd6zpl_L4-117" style="edgeStyle=orthogonalEdgeStyle;rounded=0;orthogonalLoop=1;jettySize=auto;html=1;exitX=0;exitY=0.5;exitDx=0;exitDy=0;entryX=1;entryY=0.5;entryDx=0;entryDy=0;startArrow=none;startFill=0;endArrow=classic;endFill=1;fillColor=#6a00ff;strokeColor=#330066;strokeWidth=4;" parent="1" source="DJ6YM_CZNNagd6zpl_L4-11" target="5d2195bd80daf111-18" edge="1">
          <mxGeometry relative="1" as="geometry">
            <mxPoint x="-1640" y="-1955" as="targetPoint" />
            <mxPoint x="-2047" y="-1370" as="sourcePoint" />
          </mxGeometry>
        </mxCell>
        <mxCell id="LBKzw_JlbSK5Q4wUVQRv-4" value="View" style="edgeLabel;html=1;align=center;verticalAlign=middle;resizable=0;points=[];rotation=0;" parent="DJ6YM_CZNNagd6zpl_L4-117" vertex="1" connectable="0">
          <mxGeometry x="-0.2943" y="1" relative="1" as="geometry">
            <mxPoint x="-29" y="108" as="offset" />
          </mxGeometry>
        </mxCell>
        <mxCell id="DJ6YM_CZNNagd6zpl_L4-122" style="edgeStyle=orthogonalEdgeStyle;rounded=0;orthogonalLoop=1;jettySize=auto;html=1;entryX=1;entryY=0.5;entryDx=0;entryDy=0;startArrow=classic;startFill=1;endArrow=none;endFill=0;" parent="1" source="DJ6YM_CZNNagd6zpl_L4-56" target="DJ6YM_CZNNagd6zpl_L4-74" edge="1">
          <mxGeometry relative="1" as="geometry">
            <mxPoint x="-1198" y="-2617.5" as="targetPoint" />
          </mxGeometry>
        </mxCell>
        <mxCell id="DJ6YM_CZNNagd6zpl_L4-123" style="edgeStyle=orthogonalEdgeStyle;rounded=0;orthogonalLoop=1;jettySize=auto;html=1;entryX=1;entryY=0.5;entryDx=0;entryDy=0;startArrow=classic;startFill=1;endArrow=none;endFill=0;" parent="1" source="DJ6YM_CZNNagd6zpl_L4-112" target="DJ6YM_CZNNagd6zpl_L4-70" edge="1">
          <mxGeometry relative="1" as="geometry">
            <mxPoint x="-1198" y="-2647.5" as="targetPoint" />
          </mxGeometry>
        </mxCell>
        <mxCell id="DJ6YM_CZNNagd6zpl_L4-128" value="EditorPerms" style="swimlane;fontStyle=0;childLayout=stackLayout;horizontal=1;startSize=30;horizontalStack=0;resizeParent=1;resizeParentMax=0;resizeLast=0;collapsible=1;marginBottom=0;whiteSpace=wrap;html=1;" parent="1" vertex="1">
          <mxGeometry x="-1963" y="-2862.5" width="160" height="90" as="geometry" />
        </mxCell>
        <mxCell id="DJ6YM_CZNNagd6zpl_L4-129" value="View All Available To Role" style="text;strokeColor=none;fillColor=#18141D;align=left;verticalAlign=middle;spacingLeft=4;spacingRight=4;overflow=hidden;points=[[0,0.5],[1,0.5]];portConstraint=eastwest;rotatable=0;whiteSpace=wrap;html=1;fillStyle=solid;" parent="DJ6YM_CZNNagd6zpl_L4-128" vertex="1">
          <mxGeometry y="30" width="160" height="30" as="geometry" />
        </mxCell>
        <mxCell id="DJ6YM_CZNNagd6zpl_L4-130" value="Edit All Available To Role" style="text;strokeColor=none;fillColor=default;align=left;verticalAlign=middle;spacingLeft=4;spacingRight=4;overflow=hidden;points=[[0,0.5],[1,0.5]];portConstraint=eastwest;rotatable=0;whiteSpace=wrap;html=1;" parent="DJ6YM_CZNNagd6zpl_L4-128" vertex="1">
          <mxGeometry y="60" width="160" height="30" as="geometry" />
        </mxCell>
        <mxCell id="DJ6YM_CZNNagd6zpl_L4-134" style="edgeStyle=orthogonalEdgeStyle;rounded=0;orthogonalLoop=1;jettySize=auto;html=1;entryX=1;entryY=0.5;entryDx=0;entryDy=0;endArrow=none;endFill=0;startArrow=classic;startFill=1;" parent="1" source="DJ6YM_CZNNagd6zpl_L4-129" target="DJ6YM_CZNNagd6zpl_L4-75" edge="1">
          <mxGeometry relative="1" as="geometry">
            <mxPoint x="-1198" y="-2587.5" as="targetPoint" />
          </mxGeometry>
        </mxCell>
        <mxCell id="LBKzw_JlbSK5Q4wUVQRv-47" style="edgeStyle=orthogonalEdgeStyle;rounded=0;orthogonalLoop=1;jettySize=auto;html=1;exitX=0;exitY=0.5;exitDx=0;exitDy=0;entryX=0.5;entryY=0;entryDx=0;entryDy=0;" parent="1" source="5d2195bd80daf111-18" target="DJ6YM_CZNNagd6zpl_L4-30" edge="1">
          <mxGeometry relative="1" as="geometry" />
        </mxCell>
        <mxCell id="LBKzw_JlbSK5Q4wUVQRv-48" value="Category" style="edgeLabel;html=1;align=center;verticalAlign=middle;resizable=0;points=[];" parent="LBKzw_JlbSK5Q4wUVQRv-47" vertex="1" connectable="0">
          <mxGeometry x="0.2581" relative="1" as="geometry">
            <mxPoint as="offset" />
          </mxGeometry>
        </mxCell>
        <mxCell id="5d2195bd80daf111-18" value="&lt;p style=&quot;margin:0px;margin-top:4px;text-align:center;&quot;&gt;&lt;b&gt;Story&lt;/b&gt;&lt;/p&gt;&lt;hr size=&quot;1&quot;&gt;&lt;p style=&quot;margin:0px;margin-left:4px;&quot;&gt;+ Title: String&lt;br&gt;+ type: String&lt;/p&gt;&lt;p style=&quot;margin:0px;margin-left:4px;&quot;&gt;+ category: String&lt;/p&gt;&lt;p style=&quot;margin:0px;margin-left:4px;&quot;&gt;+ view: String&lt;/p&gt;&lt;p style=&quot;margin:0px;margin-left:4px;&quot;&gt;+ u_id: Int&lt;br&gt;+ chapter: Page&lt;/p&gt;&lt;hr size=&quot;1&quot;&gt;&lt;p style=&quot;margin:0px;margin-left:4px;&quot;&gt;+ method1(Type): Type&lt;br&gt;+ method2(Type, Type): Type&lt;/p&gt;" style="verticalAlign=top;align=left;overflow=fill;fontSize=12;fontFamily=Helvetica;html=1;rounded=0;shadow=0;comic=0;labelBackgroundColor=none;strokeWidth=1" parent="1" vertex="1">
          <mxGeometry x="-3280" y="-3160" width="190" height="170" as="geometry" />
        </mxCell>
        <mxCell id="DJ6YM_CZNNagd6zpl_L4-11" value="&lt;p style=&quot;margin:0px;margin-top:4px;text-align:center;&quot;&gt;&lt;b&gt;View&lt;/b&gt;&lt;/p&gt;&lt;hr size=&quot;1&quot;&gt;&lt;p style=&quot;margin:0px;margin-left:4px;&quot;&gt;+ view_type: String&lt;br&gt;&lt;/p&gt;&lt;hr size=&quot;1&quot;&gt;&lt;p style=&quot;margin:0px;margin-left:4px;&quot;&gt;+ method1(Type): Type&lt;br&gt;+ method2(Type, Type): Type&lt;/p&gt;" style="verticalAlign=top;align=left;overflow=fill;fontSize=12;fontFamily=Helvetica;html=1;rounded=0;shadow=0;comic=0;labelBackgroundColor=none;strokeWidth=4;strokeColor=#330066;" parent="1" vertex="1">
          <mxGeometry x="-2950" y="-3285" width="190" height="140" as="geometry" />
        </mxCell>
        <mxCell id="LBKzw_JlbSK5Q4wUVQRv-11" value="&lt;h1 style=&quot;font-size: 70px;&quot;&gt;Matt&#39;s Site&lt;/h1&gt;" style="text;html=1;strokeColor=none;fillColor=none;align=center;verticalAlign=middle;whiteSpace=wrap;rounded=0;" parent="1" vertex="1">
          <mxGeometry x="-2848" y="-3410" width="580" height="30" as="geometry" />
        </mxCell>
        <mxCell id="DJ6YM_CZNNagd6zpl_L4-69" value="Roles" style="swimlane;fontStyle=0;childLayout=stackLayout;horizontal=1;startSize=30;horizontalStack=0;resizeParent=1;resizeParentMax=0;resizeLast=0;collapsible=1;marginBottom=0;whiteSpace=wrap;html=1;fillStyle=solid;fillColor=#18141D;swimlaneLine=1;strokeColor=default;" parent="1" vertex="1">
          <mxGeometry x="-2318" y="-2982.5" width="140" height="180" as="geometry">
            <mxRectangle x="940" y="-440" width="60" height="30" as="alternateBounds" />
          </mxGeometry>
        </mxCell>
        <mxCell id="DJ6YM_CZNNagd6zpl_L4-70" value="Public/Not Logged In" style="text;strokeColor=none;fillColor=default;align=left;verticalAlign=middle;spacingLeft=4;spacingRight=4;overflow=hidden;points=[[0,0.5],[1,0.5]];portConstraint=eastwest;rotatable=0;whiteSpace=wrap;html=1;" parent="DJ6YM_CZNNagd6zpl_L4-69" vertex="1">
          <mxGeometry y="30" width="140" height="30" as="geometry" />
        </mxCell>
        <mxCell id="DJ6YM_CZNNagd6zpl_L4-74" value="Special Contributer" style="text;strokeColor=none;fillColor=default;align=left;verticalAlign=middle;spacingLeft=4;spacingRight=4;overflow=hidden;points=[[0,0.5],[1,0.5]];portConstraint=eastwest;rotatable=0;whiteSpace=wrap;html=1;" parent="DJ6YM_CZNNagd6zpl_L4-69" vertex="1">
          <mxGeometry y="60" width="140" height="30" as="geometry" />
        </mxCell>
        <mxCell id="DJ6YM_CZNNagd6zpl_L4-75" value="Editor" style="text;strokeColor=none;fillColor=default;align=left;verticalAlign=middle;spacingLeft=4;spacingRight=4;overflow=hidden;points=[[0,0.5],[1,0.5]];portConstraint=eastwest;rotatable=0;whiteSpace=wrap;html=1;" parent="DJ6YM_CZNNagd6zpl_L4-69" vertex="1">
          <mxGeometry y="90" width="140" height="30" as="geometry" />
        </mxCell>
        <mxCell id="DJ6YM_CZNNagd6zpl_L4-76" value="Author" style="text;strokeColor=none;fillColor=default;align=left;verticalAlign=middle;spacingLeft=4;spacingRight=4;overflow=hidden;points=[[0,0.5],[1,0.5]];portConstraint=eastwest;rotatable=0;whiteSpace=wrap;html=1;" parent="DJ6YM_CZNNagd6zpl_L4-69" vertex="1">
          <mxGeometry y="120" width="140" height="30" as="geometry" />
        </mxCell>
        <mxCell id="DJ6YM_CZNNagd6zpl_L4-83" value="Site Admin" style="text;strokeColor=none;fillColor=default;align=left;verticalAlign=middle;spacingLeft=4;spacingRight=4;overflow=hidden;points=[[0,0.5],[1,0.5]];portConstraint=eastwest;rotatable=0;whiteSpace=wrap;html=1;" parent="DJ6YM_CZNNagd6zpl_L4-69" vertex="1">
          <mxGeometry y="150" width="140" height="30" as="geometry" />
        </mxCell>
        <mxCell id="LBKzw_JlbSK5Q4wUVQRv-81" value="Author Site Admin" style="whiteSpace=wrap;html=1;fillColor=#18141D;fontStyle=0;startSize=30;fillStyle=solid;rotation=-90;" parent="1" vertex="1">
          <mxGeometry x="-1813" y="-2662.5" width="120" height="30" as="geometry" />
        </mxCell>
      </root>
    </mxGraphModel>
  </diagram>
  <diagram id="5EWNusz5TqHd4Jbv8HOc" name="Author Site">
    <mxGraphModel dx="7076" dy="4063" grid="1" gridSize="10" guides="1" tooltips="1" connect="1" arrows="1" fold="1" page="1" pageScale="1" pageWidth="1169" pageHeight="1654" math="0" shadow="0">
      <root>
        <mxCell id="0" />
        <mxCell id="1" parent="0" />
        <mxCell id="JyoXQalbstN1lPwB8Yc5-6" style="edgeStyle=orthogonalEdgeStyle;rounded=0;orthogonalLoop=1;jettySize=auto;html=1;strokeWidth=4;strokeColor=#006633;entryX=0;entryY=0;entryDx=0;entryDy=0;" edge="1" parent="1" source="JyoXQalbstN1lPwB8Yc5-4" target="D27boOKhMZq8KNrwNPAT-27">
          <mxGeometry relative="1" as="geometry">
            <mxPoint x="-3700" y="-3070" as="targetPoint" />
          </mxGeometry>
        </mxCell>
        <mxCell id="D27boOKhMZq8KNrwNPAT-39" style="edgeStyle=orthogonalEdgeStyle;rounded=0;orthogonalLoop=1;jettySize=auto;html=1;entryX=0;entryY=0;entryDx=0;entryDy=0;strokeColor=#990099;strokeWidth=4;" parent="1" source="D27boOKhMZq8KNrwNPAT-37" target="D27boOKhMZq8KNrwNPAT-24" edge="1">
          <mxGeometry relative="1" as="geometry" />
        </mxCell>
        <mxCell id="1_gcHz5eGuMteRU45V8J-25" value="&lt;h1&gt;&lt;b&gt;&lt;u&gt;Author Site Back End&lt;/u&gt;&lt;/b&gt;&lt;/h1&gt;" style="rounded=0;whiteSpace=wrap;html=1;fillColor=none;verticalAlign=top;" parent="1" vertex="1">
          <mxGeometry x="-4541.1" y="-2500" width="940.2" height="610" as="geometry" />
        </mxCell>
        <mxCell id="D27boOKhMZq8KNrwNPAT-1" value="&lt;h1&gt;&lt;font size=&quot;1&quot;&gt;&lt;u style=&quot;font-size: 24px;&quot;&gt;Author Site Front End&lt;/u&gt;&lt;/font&gt;&lt;/h1&gt;" style="rounded=0;whiteSpace=wrap;html=1;verticalAlign=top;fillColor=none;" parent="1" vertex="1">
          <mxGeometry x="-4660" y="-3280" width="1100" height="580" as="geometry" />
        </mxCell>
        <mxCell id="D27boOKhMZq8KNrwNPAT-2" value="SideBar" style="swimlane;fontStyle=0;childLayout=stackLayout;horizontal=1;startSize=30;horizontalStack=0;resizeParent=1;resizeParentMax=0;resizeLast=0;collapsible=1;marginBottom=0;whiteSpace=wrap;html=1;" parent="1" vertex="1">
          <mxGeometry x="-5640" y="-3210" width="140" height="270" as="geometry" />
        </mxCell>
        <mxCell id="D27boOKhMZq8KNrwNPAT-3" value="Home" style="text;strokeColor=none;fillColor=default;align=left;verticalAlign=middle;spacingLeft=4;spacingRight=4;overflow=hidden;points=[[0,0.5],[1,0.5]];portConstraint=eastwest;rotatable=0;whiteSpace=wrap;html=1;labelBackgroundColor=none;" parent="D27boOKhMZq8KNrwNPAT-2" vertex="1">
          <mxGeometry y="30" width="140" height="30" as="geometry" />
        </mxCell>
        <mxCell id="D27boOKhMZq8KNrwNPAT-4" value="Original Novels" style="text;strokeColor=none;fillColor=default;align=left;verticalAlign=middle;spacingLeft=4;spacingRight=4;overflow=hidden;points=[[0,0.5],[1,0.5]];portConstraint=eastwest;rotatable=0;whiteSpace=wrap;html=1;labelBackgroundColor=none;" parent="D27boOKhMZq8KNrwNPAT-2" vertex="1">
          <mxGeometry y="60" width="140" height="30" as="geometry" />
        </mxCell>
        <mxCell id="D27boOKhMZq8KNrwNPAT-5" value="Original Short Pieces and Commissions" style="text;strokeColor=none;fillColor=default;align=left;verticalAlign=middle;spacingLeft=4;spacingRight=4;overflow=hidden;points=[[0,0.5],[1,0.5]];portConstraint=eastwest;rotatable=0;whiteSpace=wrap;html=1;labelBackgroundColor=none;" parent="D27boOKhMZq8KNrwNPAT-2" vertex="1">
          <mxGeometry y="90" width="140" height="30" as="geometry" />
        </mxCell>
        <mxCell id="D27boOKhMZq8KNrwNPAT-6" value="Fanfiction Stories" style="text;strokeColor=none;fillColor=default;align=left;verticalAlign=middle;spacingLeft=4;spacingRight=4;overflow=hidden;points=[[0,0.5],[1,0.5]];portConstraint=eastwest;rotatable=0;whiteSpace=wrap;html=1;labelBackgroundColor=none;" parent="D27boOKhMZq8KNrwNPAT-2" vertex="1">
          <mxGeometry y="120" width="140" height="30" as="geometry" />
        </mxCell>
        <mxCell id="D27boOKhMZq8KNrwNPAT-7" value="E-Bookstore" style="text;strokeColor=none;fillColor=default;align=left;verticalAlign=middle;spacingLeft=4;spacingRight=4;overflow=hidden;points=[[0,0.5],[1,0.5]];portConstraint=eastwest;rotatable=0;whiteSpace=wrap;html=1;labelBackgroundColor=none;" parent="D27boOKhMZq8KNrwNPAT-2" vertex="1">
          <mxGeometry y="150" width="140" height="30" as="geometry" />
        </mxCell>
        <mxCell id="D27boOKhMZq8KNrwNPAT-8" value="Fanfiction Collection" style="text;strokeColor=none;fillColor=default;align=left;verticalAlign=middle;spacingLeft=4;spacingRight=4;overflow=hidden;points=[[0,0.5],[1,0.5]];portConstraint=eastwest;rotatable=0;whiteSpace=wrap;html=1;labelBackgroundColor=none;" parent="D27boOKhMZq8KNrwNPAT-2" vertex="1">
          <mxGeometry y="180" width="140" height="30" as="geometry" />
        </mxCell>
        <mxCell id="D27boOKhMZq8KNrwNPAT-9" value="Dedications" style="text;strokeColor=none;fillColor=default;align=left;verticalAlign=middle;spacingLeft=4;spacingRight=4;overflow=hidden;points=[[0,0.5],[1,0.5]];portConstraint=eastwest;rotatable=0;whiteSpace=wrap;html=1;labelBackgroundColor=none;" parent="D27boOKhMZq8KNrwNPAT-2" vertex="1">
          <mxGeometry y="210" width="140" height="30" as="geometry" />
        </mxCell>
        <mxCell id="D27boOKhMZq8KNrwNPAT-10" value="About Me" style="text;strokeColor=none;fillColor=default;align=left;verticalAlign=middle;spacingLeft=4;spacingRight=4;overflow=hidden;points=[[0,0.5],[1,0.5]];portConstraint=eastwest;rotatable=0;whiteSpace=wrap;html=1;labelBackgroundColor=none;" parent="D27boOKhMZq8KNrwNPAT-2" vertex="1">
          <mxGeometry y="240" width="140" height="30" as="geometry" />
        </mxCell>
        <mxCell id="D27boOKhMZq8KNrwNPAT-11" value="Page Features" style="swimlane;fontStyle=0;childLayout=stackLayout;horizontal=1;startSize=30;horizontalStack=0;resizeParent=1;resizeParentMax=0;resizeLast=0;collapsible=1;marginBottom=0;whiteSpace=wrap;html=1;" parent="1" vertex="1">
          <mxGeometry x="-5640" y="-2900" width="140" height="150" as="geometry" />
        </mxCell>
        <mxCell id="D27boOKhMZq8KNrwNPAT-12" value="Header" style="text;strokeColor=none;fillColor=default;align=left;verticalAlign=middle;spacingLeft=4;spacingRight=4;overflow=hidden;points=[[0,0.5],[1,0.5]];portConstraint=eastwest;rotatable=0;whiteSpace=wrap;html=1;" parent="D27boOKhMZq8KNrwNPAT-11" vertex="1">
          <mxGeometry y="30" width="140" height="30" as="geometry" />
        </mxCell>
        <mxCell id="D27boOKhMZq8KNrwNPAT-13" value="NavBar" style="text;strokeColor=none;fillColor=default;align=left;verticalAlign=middle;spacingLeft=4;spacingRight=4;overflow=hidden;points=[[0,0.5],[1,0.5]];portConstraint=eastwest;rotatable=0;whiteSpace=wrap;html=1;" parent="D27boOKhMZq8KNrwNPAT-11" vertex="1">
          <mxGeometry y="60" width="140" height="30" as="geometry" />
        </mxCell>
        <mxCell id="D27boOKhMZq8KNrwNPAT-14" value="SideBar" style="text;strokeColor=none;fillColor=default;align=left;verticalAlign=middle;spacingLeft=4;spacingRight=4;overflow=hidden;points=[[0,0.5],[1,0.5]];portConstraint=eastwest;rotatable=0;whiteSpace=wrap;html=1;" parent="D27boOKhMZq8KNrwNPAT-11" vertex="1">
          <mxGeometry y="90" width="140" height="30" as="geometry" />
        </mxCell>
        <mxCell id="D27boOKhMZq8KNrwNPAT-15" value="Footer" style="text;strokeColor=none;fillColor=default;align=left;verticalAlign=middle;spacingLeft=4;spacingRight=4;overflow=hidden;points=[[0,0.5],[1,0.5]];portConstraint=eastwest;rotatable=0;whiteSpace=wrap;html=1;" parent="D27boOKhMZq8KNrwNPAT-11" vertex="1">
          <mxGeometry y="120" width="140" height="30" as="geometry" />
        </mxCell>
        <mxCell id="D27boOKhMZq8KNrwNPAT-16" value="PageTypes" style="swimlane;fontStyle=0;childLayout=stackLayout;horizontal=1;startSize=30;horizontalStack=0;resizeParent=1;resizeParentMax=0;resizeLast=0;collapsible=1;marginBottom=0;whiteSpace=wrap;html=1;" parent="1" vertex="1">
          <mxGeometry x="-4620" y="-3175" width="140" height="210" as="geometry" />
        </mxCell>
        <mxCell id="D27boOKhMZq8KNrwNPAT-17" value="Home" style="text;strokeColor=none;fillColor=default;align=left;verticalAlign=middle;spacingLeft=4;spacingRight=4;overflow=hidden;points=[[0,0.5],[1,0.5]];portConstraint=eastwest;rotatable=0;whiteSpace=wrap;html=1;labelBackgroundColor=none;" parent="D27boOKhMZq8KNrwNPAT-16" vertex="1">
          <mxGeometry y="30" width="140" height="30" as="geometry" />
        </mxCell>
        <mxCell id="D27boOKhMZq8KNrwNPAT-18" value="Story" style="text;strokeColor=none;fillColor=default;align=left;verticalAlign=middle;spacingLeft=4;spacingRight=4;overflow=hidden;points=[[0,0.5],[1,0.5]];portConstraint=eastwest;rotatable=0;whiteSpace=wrap;html=1;labelBackgroundColor=none;" parent="D27boOKhMZq8KNrwNPAT-16" vertex="1">
          <mxGeometry y="60" width="140" height="30" as="geometry" />
        </mxCell>
        <mxCell id="D27boOKhMZq8KNrwNPAT-19" value="Chapter" style="text;strokeColor=none;fillColor=default;align=left;verticalAlign=middle;spacingLeft=4;spacingRight=4;overflow=hidden;points=[[0,0.5],[1,0.5]];portConstraint=eastwest;rotatable=0;whiteSpace=wrap;html=1;labelBackgroundColor=none;" parent="D27boOKhMZq8KNrwNPAT-16" vertex="1">
          <mxGeometry y="90" width="140" height="30" as="geometry" />
        </mxCell>
        <mxCell id="D27boOKhMZq8KNrwNPAT-22" value="Series" style="text;strokeColor=none;fillColor=default;align=left;verticalAlign=middle;spacingLeft=4;spacingRight=4;overflow=hidden;points=[[0,0.5],[1,0.5]];portConstraint=eastwest;rotatable=0;whiteSpace=wrap;html=1;labelBackgroundColor=none;" parent="D27boOKhMZq8KNrwNPAT-16" vertex="1">
          <mxGeometry y="120" width="140" height="30" as="geometry" />
        </mxCell>
        <mxCell id="D27boOKhMZq8KNrwNPAT-21" value="Collection" style="text;strokeColor=none;fillColor=default;align=left;verticalAlign=middle;spacingLeft=4;spacingRight=4;overflow=hidden;points=[[0,0.5],[1,0.5]];portConstraint=eastwest;rotatable=0;whiteSpace=wrap;html=1;labelBackgroundColor=none;" parent="D27boOKhMZq8KNrwNPAT-16" vertex="1">
          <mxGeometry y="150" width="140" height="30" as="geometry" />
        </mxCell>
        <mxCell id="D27boOKhMZq8KNrwNPAT-20" value="About Me" style="text;strokeColor=none;fillColor=default;align=left;verticalAlign=middle;spacingLeft=4;spacingRight=4;overflow=hidden;points=[[0,0.5],[1,0.5]];portConstraint=eastwest;rotatable=0;whiteSpace=wrap;html=1;labelBackgroundColor=none;" parent="D27boOKhMZq8KNrwNPAT-16" vertex="1">
          <mxGeometry y="180" width="140" height="30" as="geometry" />
        </mxCell>
        <mxCell id="D27boOKhMZq8KNrwNPAT-23" style="edgeStyle=orthogonalEdgeStyle;rounded=0;orthogonalLoop=1;jettySize=auto;html=1;startArrow=classic;startFill=1;endArrow=none;endFill=0;strokeColor=#990099;strokeWidth=4;exitX=0;exitY=0;exitDx=0;exitDy=0;entryX=1;entryY=0.5;entryDx=0;entryDy=0;" parent="1" source="D27boOKhMZq8KNrwNPAT-24" target="JyoXQalbstN1lPwB8Yc5-3" edge="1">
          <mxGeometry relative="1" as="geometry">
            <mxPoint x="-3930" y="-3190" as="sourcePoint" />
            <mxPoint x="-4130" y="-3085" as="targetPoint" />
          </mxGeometry>
        </mxCell>
        <mxCell id="D27boOKhMZq8KNrwNPAT-24" value="Story" style="swimlane;fontStyle=0;childLayout=stackLayout;horizontal=1;startSize=30;horizontalStack=0;resizeParent=1;resizeParentMax=0;resizeLast=0;collapsible=1;marginBottom=0;whiteSpace=wrap;html=1;fillColor=default;labelBackgroundColor=default;strokeColor=#990099;strokeWidth=4;" parent="1" vertex="1">
          <mxGeometry x="-3820" y="-3200" width="140" height="90" as="geometry" />
        </mxCell>
        <mxCell id="D27boOKhMZq8KNrwNPAT-25" value="Story Summary" style="text;strokeColor=none;fillColor=default;align=left;verticalAlign=middle;spacingLeft=4;spacingRight=4;overflow=hidden;points=[[0,0.5],[1,0.5]];portConstraint=eastwest;rotatable=0;whiteSpace=wrap;html=1;" parent="D27boOKhMZq8KNrwNPAT-24" vertex="1">
          <mxGeometry y="30" width="140" height="30" as="geometry" />
        </mxCell>
        <mxCell id="D27boOKhMZq8KNrwNPAT-26" value="Chapters" style="text;strokeColor=none;fillColor=default;align=left;verticalAlign=middle;spacingLeft=4;spacingRight=4;overflow=hidden;points=[[0,0.5],[1,0.5]];portConstraint=eastwest;rotatable=0;whiteSpace=wrap;html=1;" parent="D27boOKhMZq8KNrwNPAT-24" vertex="1">
          <mxGeometry y="60" width="140" height="30" as="geometry" />
        </mxCell>
        <mxCell id="D27boOKhMZq8KNrwNPAT-27" value="Chapter" style="swimlane;fontStyle=0;childLayout=stackLayout;horizontal=1;startSize=30;horizontalStack=0;resizeParent=1;resizeParentMax=0;resizeLast=0;collapsible=1;marginBottom=0;whiteSpace=wrap;html=1;fillColor=default;labelBackgroundColor=default;strokeWidth=4;strokeColor=#006633;" parent="1" vertex="1">
          <mxGeometry x="-3840" y="-3010" width="140" height="90" as="geometry" />
        </mxCell>
        <mxCell id="D27boOKhMZq8KNrwNPAT-28" value="Contents" style="text;strokeColor=none;fillColor=default;align=left;verticalAlign=middle;spacingLeft=4;spacingRight=4;overflow=hidden;points=[[0,0.5],[1,0.5]];portConstraint=eastwest;rotatable=0;whiteSpace=wrap;html=1;" parent="D27boOKhMZq8KNrwNPAT-27" vertex="1">
          <mxGeometry y="30" width="140" height="30" as="geometry" />
        </mxCell>
        <mxCell id="D27boOKhMZq8KNrwNPAT-29" value="Comments" style="text;strokeColor=none;fillColor=default;align=left;verticalAlign=middle;spacingLeft=4;spacingRight=4;overflow=hidden;points=[[0,0.5],[1,0.5]];portConstraint=eastwest;rotatable=0;whiteSpace=wrap;html=1;" parent="D27boOKhMZq8KNrwNPAT-27" vertex="1">
          <mxGeometry y="60" width="140" height="30" as="geometry" />
        </mxCell>
        <mxCell id="D27boOKhMZq8KNrwNPAT-30" style="edgeStyle=orthogonalEdgeStyle;rounded=0;orthogonalLoop=1;jettySize=auto;html=1;entryX=1;entryY=0.5;entryDx=0;entryDy=0;startArrow=classic;startFill=1;endArrow=none;endFill=0;exitX=0;exitY=0;exitDx=0;exitDy=0;strokeWidth=4;strokeColor=#006633;" parent="1" source="D27boOKhMZq8KNrwNPAT-27" target="D27boOKhMZq8KNrwNPAT-16" edge="1">
          <mxGeometry relative="1" as="geometry">
            <mxPoint x="-3871" y="-3040" as="sourcePoint" />
          </mxGeometry>
        </mxCell>
        <mxCell id="D27boOKhMZq8KNrwNPAT-31" style="edgeStyle=orthogonalEdgeStyle;rounded=0;orthogonalLoop=1;jettySize=auto;html=1;entryX=1;entryY=0.5;entryDx=0;entryDy=0;endArrow=none;endFill=0;startArrow=classic;startFill=1;exitX=0;exitY=0;exitDx=0;exitDy=0;strokeWidth=4;strokeColor=#006633;" parent="1" source="D27boOKhMZq8KNrwNPAT-27" target="D27boOKhMZq8KNrwNPAT-26" edge="1">
          <mxGeometry relative="1" as="geometry">
            <mxPoint x="-3771" y="-3120" as="sourcePoint" />
            <mxPoint x="-3811" y="-3420" as="targetPoint" />
          </mxGeometry>
        </mxCell>
        <mxCell id="D27boOKhMZq8KNrwNPAT-32" style="edgeStyle=orthogonalEdgeStyle;rounded=0;orthogonalLoop=1;jettySize=auto;html=1;strokeColor=#990099;strokeWidth=4;entryX=0;entryY=0;entryDx=0;entryDy=0;exitX=1;exitY=0.5;exitDx=0;exitDy=0;" parent="1" source="D27boOKhMZq8KNrwNPAT-33" target="D27boOKhMZq8KNrwNPAT-24" edge="1">
          <mxGeometry relative="1" as="geometry">
            <mxPoint x="-3930" y="-3200" as="targetPoint" />
          </mxGeometry>
        </mxCell>
        <mxCell id="D27boOKhMZq8KNrwNPAT-33" value="Collection" style="swimlane;fontStyle=0;childLayout=stackLayout;horizontal=1;startSize=30;horizontalStack=0;resizeParent=1;resizeParentMax=0;resizeLast=0;collapsible=1;marginBottom=0;whiteSpace=wrap;html=1;fillColor=default;labelBackgroundColor=default;strokeWidth=4;strokeColor=#330066;" parent="1" vertex="1">
          <mxGeometry x="-4400" y="-2960" width="140" height="60" as="geometry" />
        </mxCell>
        <mxCell id="D27boOKhMZq8KNrwNPAT-34" value="Stories" style="text;strokeColor=none;fillColor=default;align=left;verticalAlign=middle;spacingLeft=4;spacingRight=4;overflow=hidden;points=[[0,0.5],[1,0.5]];portConstraint=eastwest;rotatable=0;whiteSpace=wrap;html=1;" parent="D27boOKhMZq8KNrwNPAT-33" vertex="1">
          <mxGeometry y="30" width="140" height="30" as="geometry" />
        </mxCell>
        <mxCell id="D27boOKhMZq8KNrwNPAT-35" style="edgeStyle=orthogonalEdgeStyle;rounded=0;orthogonalLoop=1;jettySize=auto;html=1;entryX=0;entryY=0.5;entryDx=0;entryDy=0;strokeWidth=4;strokeColor=#330066;" parent="1" source="D27boOKhMZq8KNrwNPAT-21" target="D27boOKhMZq8KNrwNPAT-33" edge="1">
          <mxGeometry relative="1" as="geometry">
            <mxPoint x="-4111" y="-2990" as="targetPoint" />
          </mxGeometry>
        </mxCell>
        <mxCell id="D27boOKhMZq8KNrwNPAT-36" value="Series" style="swimlane;fontStyle=0;childLayout=stackLayout;horizontal=1;startSize=30;horizontalStack=0;resizeParent=1;resizeParentMax=0;resizeLast=0;collapsible=1;marginBottom=0;whiteSpace=wrap;html=1;fillColor=default;labelBackgroundColor=default;strokeWidth=4;strokeColor=#330000;" parent="1" vertex="1">
          <mxGeometry x="-4400" y="-3050" width="140" height="60" as="geometry" />
        </mxCell>
        <mxCell id="D27boOKhMZq8KNrwNPAT-37" value="Stories" style="text;strokeColor=none;fillColor=default;align=left;verticalAlign=middle;spacingLeft=4;spacingRight=4;overflow=hidden;points=[[0,0.5],[1,0.5]];portConstraint=eastwest;rotatable=0;whiteSpace=wrap;html=1;" parent="D27boOKhMZq8KNrwNPAT-36" vertex="1">
          <mxGeometry y="30" width="140" height="30" as="geometry" />
        </mxCell>
        <mxCell id="D27boOKhMZq8KNrwNPAT-38" style="edgeStyle=orthogonalEdgeStyle;rounded=0;orthogonalLoop=1;jettySize=auto;html=1;entryX=0;entryY=0.5;entryDx=0;entryDy=0;strokeWidth=4;strokeColor=#330000;" parent="1" source="D27boOKhMZq8KNrwNPAT-22" target="D27boOKhMZq8KNrwNPAT-36" edge="1">
          <mxGeometry relative="1" as="geometry">
            <mxPoint x="-4171" y="-2910" as="targetPoint" />
          </mxGeometry>
        </mxCell>
        <mxCell id="D27boOKhMZq8KNrwNPAT-44" value="Footer" style="swimlane;fontStyle=0;childLayout=stackLayout;horizontal=1;startSize=30;horizontalStack=0;resizeParent=1;resizeParentMax=0;resizeLast=0;collapsible=1;marginBottom=0;whiteSpace=wrap;html=1;fillColor=default;labelBackgroundColor=default;" parent="1" vertex="1">
          <mxGeometry x="-5389" y="-2903" width="140" height="120" as="geometry" />
        </mxCell>
        <mxCell id="D27boOKhMZq8KNrwNPAT-45" value="Item 1" style="text;strokeColor=none;fillColor=default;align=left;verticalAlign=middle;spacingLeft=4;spacingRight=4;overflow=hidden;points=[[0,0.5],[1,0.5]];portConstraint=eastwest;rotatable=0;whiteSpace=wrap;html=1;" parent="D27boOKhMZq8KNrwNPAT-44" vertex="1">
          <mxGeometry y="30" width="140" height="30" as="geometry" />
        </mxCell>
        <mxCell id="D27boOKhMZq8KNrwNPAT-46" value="Item 2" style="text;strokeColor=none;fillColor=default;align=left;verticalAlign=middle;spacingLeft=4;spacingRight=4;overflow=hidden;points=[[0,0.5],[1,0.5]];portConstraint=eastwest;rotatable=0;whiteSpace=wrap;html=1;" parent="D27boOKhMZq8KNrwNPAT-44" vertex="1">
          <mxGeometry y="60" width="140" height="30" as="geometry" />
        </mxCell>
        <mxCell id="D27boOKhMZq8KNrwNPAT-47" value="Item 3" style="text;strokeColor=none;fillColor=default;align=left;verticalAlign=middle;spacingLeft=4;spacingRight=4;overflow=hidden;points=[[0,0.5],[1,0.5]];portConstraint=eastwest;rotatable=0;whiteSpace=wrap;html=1;" parent="D27boOKhMZq8KNrwNPAT-44" vertex="1">
          <mxGeometry y="90" width="140" height="30" as="geometry" />
        </mxCell>
        <mxCell id="D27boOKhMZq8KNrwNPAT-48" value="Header" style="swimlane;fontStyle=0;childLayout=stackLayout;horizontal=1;startSize=30;horizontalStack=0;resizeParent=1;resizeParentMax=0;resizeLast=0;collapsible=1;marginBottom=0;whiteSpace=wrap;html=1;fillColor=default;labelBackgroundColor=default;" parent="1" vertex="1">
          <mxGeometry x="-5072" y="-2893" width="140" height="120" as="geometry" />
        </mxCell>
        <mxCell id="D27boOKhMZq8KNrwNPAT-49" value="Item 1" style="text;strokeColor=none;fillColor=default;align=left;verticalAlign=middle;spacingLeft=4;spacingRight=4;overflow=hidden;points=[[0,0.5],[1,0.5]];portConstraint=eastwest;rotatable=0;whiteSpace=wrap;html=1;" parent="D27boOKhMZq8KNrwNPAT-48" vertex="1">
          <mxGeometry y="30" width="140" height="30" as="geometry" />
        </mxCell>
        <mxCell id="D27boOKhMZq8KNrwNPAT-50" value="Item 2" style="text;strokeColor=none;fillColor=default;align=left;verticalAlign=middle;spacingLeft=4;spacingRight=4;overflow=hidden;points=[[0,0.5],[1,0.5]];portConstraint=eastwest;rotatable=0;whiteSpace=wrap;html=1;" parent="D27boOKhMZq8KNrwNPAT-48" vertex="1">
          <mxGeometry y="60" width="140" height="30" as="geometry" />
        </mxCell>
        <mxCell id="D27boOKhMZq8KNrwNPAT-51" value="Item 3" style="text;strokeColor=none;fillColor=default;align=left;verticalAlign=middle;spacingLeft=4;spacingRight=4;overflow=hidden;points=[[0,0.5],[1,0.5]];portConstraint=eastwest;rotatable=0;whiteSpace=wrap;html=1;" parent="D27boOKhMZq8KNrwNPAT-48" vertex="1">
          <mxGeometry y="90" width="140" height="30" as="geometry" />
        </mxCell>
        <mxCell id="1_gcHz5eGuMteRU45V8J-1" value="DefaultUserPageTypes" style="swimlane;fontStyle=0;childLayout=stackLayout;horizontal=1;startSize=30;horizontalStack=0;resizeParent=1;resizeParentMax=0;resizeLast=0;collapsible=1;marginBottom=0;whiteSpace=wrap;html=1;" parent="1" vertex="1">
          <mxGeometry x="-4101.1" y="-2390" width="180" height="60" as="geometry" />
        </mxCell>
        <mxCell id="1_gcHz5eGuMteRU45V8J-2" value="Account Management" style="text;strokeColor=none;fillColor=default;align=left;verticalAlign=middle;spacingLeft=4;spacingRight=4;overflow=hidden;points=[[0,0.5],[1,0.5]];portConstraint=eastwest;rotatable=0;whiteSpace=wrap;html=1;" parent="1_gcHz5eGuMteRU45V8J-1" vertex="1">
          <mxGeometry y="30" width="180" height="30" as="geometry" />
        </mxCell>
        <mxCell id="1_gcHz5eGuMteRU45V8J-3" value="EditorUserPageTypes" style="swimlane;fontStyle=0;childLayout=stackLayout;horizontal=1;startSize=30;horizontalStack=0;resizeParent=1;resizeParentMax=0;resizeLast=0;collapsible=1;marginBottom=0;whiteSpace=wrap;html=1;" parent="1" vertex="1">
          <mxGeometry x="-4101.1" y="-2230" width="180" height="60" as="geometry" />
        </mxCell>
        <mxCell id="1_gcHz5eGuMteRU45V8J-4" value="Account Management" style="text;strokeColor=none;fillColor=default;align=left;verticalAlign=middle;spacingLeft=4;spacingRight=4;overflow=hidden;points=[[0,0.5],[1,0.5]];portConstraint=eastwest;rotatable=0;whiteSpace=wrap;html=1;" parent="1_gcHz5eGuMteRU45V8J-3" vertex="1">
          <mxGeometry y="30" width="180" height="30" as="geometry" />
        </mxCell>
        <mxCell id="1_gcHz5eGuMteRU45V8J-5" value="AuthorUserPageTypes" style="swimlane;fontStyle=0;childLayout=stackLayout;horizontal=1;startSize=30;horizontalStack=0;resizeParent=1;resizeParentMax=0;resizeLast=0;collapsible=1;marginBottom=0;whiteSpace=wrap;html=1;" parent="1" vertex="1">
          <mxGeometry x="-4101.1" y="-2153" width="180" height="120" as="geometry" />
        </mxCell>
        <mxCell id="1_gcHz5eGuMteRU45V8J-6" value="Account Management" style="text;strokeColor=none;fillColor=default;align=left;verticalAlign=middle;spacingLeft=4;spacingRight=4;overflow=hidden;points=[[0,0.5],[1,0.5]];portConstraint=eastwest;rotatable=0;whiteSpace=wrap;html=1;" parent="1_gcHz5eGuMteRU45V8J-5" vertex="1">
          <mxGeometry y="30" width="180" height="30" as="geometry" />
        </mxCell>
        <mxCell id="1_gcHz5eGuMteRU45V8J-7" value="Role Management" style="text;strokeColor=none;fillColor=default;align=left;verticalAlign=middle;spacingLeft=4;spacingRight=4;overflow=hidden;points=[[0,0.5],[1,0.5]];portConstraint=eastwest;rotatable=0;whiteSpace=wrap;html=1;" parent="1_gcHz5eGuMteRU45V8J-5" vertex="1">
          <mxGeometry y="60" width="180" height="30" as="geometry" />
        </mxCell>
        <mxCell id="1_gcHz5eGuMteRU45V8J-8" value="Upload Posts&amp;nbsp;&lt;sub&gt;&amp;nbsp;Rich Text Editor&lt;/sub&gt;" style="text;strokeColor=none;fillColor=default;align=left;verticalAlign=middle;spacingLeft=4;spacingRight=4;overflow=hidden;points=[[0,0.5],[1,0.5]];portConstraint=eastwest;rotatable=0;whiteSpace=wrap;html=1;" parent="1_gcHz5eGuMteRU45V8J-5" vertex="1">
          <mxGeometry y="90" width="180" height="30" as="geometry" />
        </mxCell>
        <mxCell id="1_gcHz5eGuMteRU45V8J-9" style="edgeStyle=orthogonalEdgeStyle;rounded=0;orthogonalLoop=1;jettySize=auto;html=1;entryX=1;entryY=0.5;entryDx=0;entryDy=0;startArrow=classic;startFill=1;endArrow=none;endFill=0;exitX=0;exitY=0.5;exitDx=0;exitDy=0;" parent="1" source="1_gcHz5eGuMteRU45V8J-10" target="1_gcHz5eGuMteRU45V8J-18" edge="1">
          <mxGeometry relative="1" as="geometry">
            <mxPoint x="-4270.9" y="-1980" as="sourcePoint" />
          </mxGeometry>
        </mxCell>
        <mxCell id="1_gcHz5eGuMteRU45V8J-10" value="AdminUserPagesTypes" style="swimlane;fontStyle=0;childLayout=stackLayout;horizontal=1;startSize=30;horizontalStack=0;resizeParent=1;resizeParentMax=0;resizeLast=0;collapsible=1;marginBottom=0;whiteSpace=wrap;html=1;" parent="1" vertex="1">
          <mxGeometry x="-4101.1" y="-2010" width="170" height="90" as="geometry" />
        </mxCell>
        <mxCell id="1_gcHz5eGuMteRU45V8J-11" value="Account Management" style="text;strokeColor=none;fillColor=default;align=left;verticalAlign=middle;spacingLeft=4;spacingRight=4;overflow=hidden;points=[[0,0.5],[1,0.5]];portConstraint=eastwest;rotatable=0;whiteSpace=wrap;html=1;" parent="1_gcHz5eGuMteRU45V8J-10" vertex="1">
          <mxGeometry y="30" width="170" height="30" as="geometry" />
        </mxCell>
        <mxCell id="1_gcHz5eGuMteRU45V8J-12" value="Role Management" style="text;strokeColor=none;fillColor=default;align=left;verticalAlign=middle;spacingLeft=4;spacingRight=4;overflow=hidden;points=[[0,0.5],[1,0.5]];portConstraint=eastwest;rotatable=0;whiteSpace=wrap;html=1;" parent="1_gcHz5eGuMteRU45V8J-10" vertex="1">
          <mxGeometry y="60" width="170" height="30" as="geometry" />
        </mxCell>
        <mxCell id="1_gcHz5eGuMteRU45V8J-13" value="Roles" style="swimlane;fontStyle=0;childLayout=stackLayout;horizontal=1;startSize=30;horizontalStack=0;resizeParent=1;resizeParentMax=0;resizeLast=0;collapsible=1;marginBottom=0;whiteSpace=wrap;html=1;fillStyle=solid;fillColor=#18141D;swimlaneLine=1;strokeColor=default;" parent="1" vertex="1">
          <mxGeometry x="-4480.9" y="-2260" width="140" height="180" as="geometry">
            <mxRectangle x="940" y="-440" width="60" height="30" as="alternateBounds" />
          </mxGeometry>
        </mxCell>
        <mxCell id="1_gcHz5eGuMteRU45V8J-14" value="Default User" style="text;strokeColor=none;fillColor=default;align=left;verticalAlign=middle;spacingLeft=4;spacingRight=4;overflow=hidden;points=[[0,0.5],[1,0.5]];portConstraint=eastwest;rotatable=0;whiteSpace=wrap;html=1;" parent="1_gcHz5eGuMteRU45V8J-13" vertex="1">
          <mxGeometry y="30" width="140" height="30" as="geometry" />
        </mxCell>
        <mxCell id="1_gcHz5eGuMteRU45V8J-15" value="Special Contributer" style="text;strokeColor=none;fillColor=default;align=left;verticalAlign=middle;spacingLeft=4;spacingRight=4;overflow=hidden;points=[[0,0.5],[1,0.5]];portConstraint=eastwest;rotatable=0;whiteSpace=wrap;html=1;" parent="1_gcHz5eGuMteRU45V8J-13" vertex="1">
          <mxGeometry y="60" width="140" height="30" as="geometry" />
        </mxCell>
        <mxCell id="1_gcHz5eGuMteRU45V8J-16" value="Editor" style="text;strokeColor=none;fillColor=default;align=left;verticalAlign=middle;spacingLeft=4;spacingRight=4;overflow=hidden;points=[[0,0.5],[1,0.5]];portConstraint=eastwest;rotatable=0;whiteSpace=wrap;html=1;" parent="1_gcHz5eGuMteRU45V8J-13" vertex="1">
          <mxGeometry y="90" width="140" height="30" as="geometry" />
        </mxCell>
        <mxCell id="1_gcHz5eGuMteRU45V8J-17" value="Author" style="text;strokeColor=none;fillColor=default;align=left;verticalAlign=middle;spacingLeft=4;spacingRight=4;overflow=hidden;points=[[0,0.5],[1,0.5]];portConstraint=eastwest;rotatable=0;whiteSpace=wrap;html=1;" parent="1_gcHz5eGuMteRU45V8J-13" vertex="1">
          <mxGeometry y="120" width="140" height="30" as="geometry" />
        </mxCell>
        <mxCell id="1_gcHz5eGuMteRU45V8J-18" value="Site Admin" style="text;strokeColor=none;fillColor=default;align=left;verticalAlign=middle;spacingLeft=4;spacingRight=4;overflow=hidden;points=[[0,0.5],[1,0.5]];portConstraint=eastwest;rotatable=0;whiteSpace=wrap;html=1;" parent="1_gcHz5eGuMteRU45V8J-13" vertex="1">
          <mxGeometry y="150" width="140" height="30" as="geometry" />
        </mxCell>
        <mxCell id="1_gcHz5eGuMteRU45V8J-19" style="edgeStyle=orthogonalEdgeStyle;rounded=0;orthogonalLoop=1;jettySize=auto;html=1;entryX=0;entryY=0.5;entryDx=0;entryDy=0;" parent="1" source="1_gcHz5eGuMteRU45V8J-17" target="1_gcHz5eGuMteRU45V8J-5" edge="1">
          <mxGeometry relative="1" as="geometry">
            <Array as="points">
              <mxPoint x="-4200.9" y="-2125" />
              <mxPoint x="-4200.9" y="-2093" />
            </Array>
          </mxGeometry>
        </mxCell>
        <mxCell id="1_gcHz5eGuMteRU45V8J-20" value="SpecialContributerUserPageTypes" style="swimlane;fontStyle=0;childLayout=stackLayout;horizontal=1;startSize=30;horizontalStack=0;resizeParent=1;resizeParentMax=0;resizeLast=0;collapsible=1;marginBottom=0;whiteSpace=wrap;html=1;" parent="1" vertex="1">
          <mxGeometry x="-4101.1" y="-2310" width="250" height="60" as="geometry" />
        </mxCell>
        <mxCell id="1_gcHz5eGuMteRU45V8J-21" value="Account Management" style="text;strokeColor=none;fillColor=default;align=left;verticalAlign=middle;spacingLeft=4;spacingRight=4;overflow=hidden;points=[[0,0.5],[1,0.5]];portConstraint=eastwest;rotatable=0;whiteSpace=wrap;html=1;" parent="1_gcHz5eGuMteRU45V8J-20" vertex="1">
          <mxGeometry y="30" width="250" height="30" as="geometry" />
        </mxCell>
        <mxCell id="1_gcHz5eGuMteRU45V8J-22" style="edgeStyle=orthogonalEdgeStyle;rounded=0;orthogonalLoop=1;jettySize=auto;html=1;entryX=0;entryY=0.5;entryDx=0;entryDy=0;" parent="1" source="1_gcHz5eGuMteRU45V8J-15" target="1_gcHz5eGuMteRU45V8J-20" edge="1">
          <mxGeometry relative="1" as="geometry">
            <mxPoint x="-4570.9" y="-1910" as="targetPoint" />
            <Array as="points">
              <mxPoint x="-4200.9" y="-2185" />
              <mxPoint x="-4200.9" y="-2290" />
            </Array>
          </mxGeometry>
        </mxCell>
        <mxCell id="1_gcHz5eGuMteRU45V8J-23" style="edgeStyle=orthogonalEdgeStyle;rounded=0;orthogonalLoop=1;jettySize=auto;html=1;entryX=0;entryY=0.5;entryDx=0;entryDy=0;" parent="1" source="1_gcHz5eGuMteRU45V8J-16" target="1_gcHz5eGuMteRU45V8J-3" edge="1">
          <mxGeometry relative="1" as="geometry">
            <mxPoint x="-4600.9" y="-2000" as="targetPoint" />
            <Array as="points">
              <mxPoint x="-4180.9" y="-2155" />
              <mxPoint x="-4180.9" y="-2200" />
            </Array>
          </mxGeometry>
        </mxCell>
        <mxCell id="1_gcHz5eGuMteRU45V8J-24" style="edgeStyle=orthogonalEdgeStyle;rounded=0;orthogonalLoop=1;jettySize=auto;html=1;entryX=0;entryY=0.5;entryDx=0;entryDy=0;" parent="1" source="1_gcHz5eGuMteRU45V8J-14" target="1_gcHz5eGuMteRU45V8J-1" edge="1">
          <mxGeometry relative="1" as="geometry">
            <mxPoint x="-4580.9" y="-2050" as="targetPoint" />
          </mxGeometry>
        </mxCell>
        <mxCell id="1_gcHz5eGuMteRU45V8J-26" value="Role Managerment" style="swimlane;fontStyle=0;childLayout=stackLayout;horizontal=1;startSize=30;horizontalStack=0;resizeParent=1;resizeParentMax=0;resizeLast=0;collapsible=1;marginBottom=0;whiteSpace=wrap;html=1;fillColor=default;labelBackgroundColor=default;" parent="1" vertex="1">
          <mxGeometry x="-3800" y="-2070" width="140" height="60" as="geometry" />
        </mxCell>
        <mxCell id="1_gcHz5eGuMteRU45V8J-27" value="Change User Group" style="text;strokeColor=none;fillColor=default;align=left;verticalAlign=middle;spacingLeft=4;spacingRight=4;overflow=hidden;points=[[0,0.5],[1,0.5]];portConstraint=eastwest;rotatable=0;whiteSpace=wrap;html=1;" parent="1_gcHz5eGuMteRU45V8J-26" vertex="1">
          <mxGeometry y="30" width="140" height="30" as="geometry" />
        </mxCell>
        <mxCell id="DWp0vPhpoVIBTQwiDqvu-1" value="NavBar" style="swimlane;fontStyle=0;childLayout=stackLayout;horizontal=1;startSize=30;horizontalStack=0;resizeParent=1;resizeParentMax=0;resizeLast=0;collapsible=1;marginBottom=0;whiteSpace=wrap;html=1;" vertex="1" parent="1">
          <mxGeometry x="-4919" y="-3020" width="140" height="270" as="geometry" />
        </mxCell>
        <mxCell id="DWp0vPhpoVIBTQwiDqvu-2" value="Home" style="text;strokeColor=none;fillColor=default;align=left;verticalAlign=middle;spacingLeft=4;spacingRight=4;overflow=hidden;points=[[0,0.5],[1,0.5]];portConstraint=eastwest;rotatable=0;whiteSpace=wrap;html=1;labelBackgroundColor=none;" vertex="1" parent="DWp0vPhpoVIBTQwiDqvu-1">
          <mxGeometry y="30" width="140" height="30" as="geometry" />
        </mxCell>
        <mxCell id="DWp0vPhpoVIBTQwiDqvu-3" value="Original Novels" style="text;strokeColor=none;fillColor=default;align=left;verticalAlign=middle;spacingLeft=4;spacingRight=4;overflow=hidden;points=[[0,0.5],[1,0.5]];portConstraint=eastwest;rotatable=0;whiteSpace=wrap;html=1;labelBackgroundColor=none;" vertex="1" parent="DWp0vPhpoVIBTQwiDqvu-1">
          <mxGeometry y="60" width="140" height="30" as="geometry" />
        </mxCell>
        <mxCell id="DWp0vPhpoVIBTQwiDqvu-4" value="Original Short Pieces and Commissions" style="text;strokeColor=none;fillColor=default;align=left;verticalAlign=middle;spacingLeft=4;spacingRight=4;overflow=hidden;points=[[0,0.5],[1,0.5]];portConstraint=eastwest;rotatable=0;whiteSpace=wrap;html=1;labelBackgroundColor=none;" vertex="1" parent="DWp0vPhpoVIBTQwiDqvu-1">
          <mxGeometry y="90" width="140" height="30" as="geometry" />
        </mxCell>
        <mxCell id="DWp0vPhpoVIBTQwiDqvu-5" value="Fanfiction Stories" style="text;strokeColor=none;fillColor=default;align=left;verticalAlign=middle;spacingLeft=4;spacingRight=4;overflow=hidden;points=[[0,0.5],[1,0.5]];portConstraint=eastwest;rotatable=0;whiteSpace=wrap;html=1;labelBackgroundColor=none;" vertex="1" parent="DWp0vPhpoVIBTQwiDqvu-1">
          <mxGeometry y="120" width="140" height="30" as="geometry" />
        </mxCell>
        <mxCell id="DWp0vPhpoVIBTQwiDqvu-6" value="E-Bookstore" style="text;strokeColor=none;fillColor=default;align=left;verticalAlign=middle;spacingLeft=4;spacingRight=4;overflow=hidden;points=[[0,0.5],[1,0.5]];portConstraint=eastwest;rotatable=0;whiteSpace=wrap;html=1;labelBackgroundColor=none;" vertex="1" parent="DWp0vPhpoVIBTQwiDqvu-1">
          <mxGeometry y="150" width="140" height="30" as="geometry" />
        </mxCell>
        <mxCell id="DWp0vPhpoVIBTQwiDqvu-7" value="Fanfiction Collection" style="text;strokeColor=none;fillColor=default;align=left;verticalAlign=middle;spacingLeft=4;spacingRight=4;overflow=hidden;points=[[0,0.5],[1,0.5]];portConstraint=eastwest;rotatable=0;whiteSpace=wrap;html=1;labelBackgroundColor=none;" vertex="1" parent="DWp0vPhpoVIBTQwiDqvu-1">
          <mxGeometry y="180" width="140" height="30" as="geometry" />
        </mxCell>
        <mxCell id="DWp0vPhpoVIBTQwiDqvu-8" value="Dedications" style="text;strokeColor=none;fillColor=default;align=left;verticalAlign=middle;spacingLeft=4;spacingRight=4;overflow=hidden;points=[[0,0.5],[1,0.5]];portConstraint=eastwest;rotatable=0;whiteSpace=wrap;html=1;labelBackgroundColor=none;" vertex="1" parent="DWp0vPhpoVIBTQwiDqvu-1">
          <mxGeometry y="210" width="140" height="30" as="geometry" />
        </mxCell>
        <mxCell id="DWp0vPhpoVIBTQwiDqvu-9" value="About Me" style="text;strokeColor=none;fillColor=default;align=left;verticalAlign=middle;spacingLeft=4;spacingRight=4;overflow=hidden;points=[[0,0.5],[1,0.5]];portConstraint=eastwest;rotatable=0;whiteSpace=wrap;html=1;labelBackgroundColor=none;" vertex="1" parent="DWp0vPhpoVIBTQwiDqvu-1">
          <mxGeometry y="240" width="140" height="30" as="geometry" />
        </mxCell>
        <mxCell id="JyoXQalbstN1lPwB8Yc5-2" value="Story Type" style="swimlane;fontStyle=0;childLayout=stackLayout;horizontal=1;startSize=30;horizontalStack=0;resizeParent=1;resizeParentMax=0;resizeLast=0;collapsible=1;marginBottom=0;whiteSpace=wrap;html=1;strokeWidth=4;strokeColor=#004C99;" vertex="1" parent="1">
          <mxGeometry x="-4400" y="-3185" width="140" height="90" as="geometry" />
        </mxCell>
        <mxCell id="JyoXQalbstN1lPwB8Yc5-3" value="Long" style="text;strokeColor=none;fillColor=none;align=left;verticalAlign=middle;spacingLeft=4;spacingRight=4;overflow=hidden;points=[[0,0.5],[1,0.5]];portConstraint=eastwest;rotatable=0;whiteSpace=wrap;html=1;" vertex="1" parent="JyoXQalbstN1lPwB8Yc5-2">
          <mxGeometry y="30" width="140" height="30" as="geometry" />
        </mxCell>
        <mxCell id="JyoXQalbstN1lPwB8Yc5-4" value="Short" style="text;strokeColor=none;fillColor=none;align=left;verticalAlign=middle;spacingLeft=4;spacingRight=4;overflow=hidden;points=[[0,0.5],[1,0.5]];portConstraint=eastwest;rotatable=0;whiteSpace=wrap;html=1;" vertex="1" parent="JyoXQalbstN1lPwB8Yc5-2">
          <mxGeometry y="60" width="140" height="30" as="geometry" />
        </mxCell>
        <mxCell id="JyoXQalbstN1lPwB8Yc5-7" style="edgeStyle=orthogonalEdgeStyle;rounded=0;orthogonalLoop=1;jettySize=auto;html=1;entryX=0;entryY=0;entryDx=0;entryDy=0;strokeColor=#004C99;strokeWidth=4;" edge="1" parent="1" source="D27boOKhMZq8KNrwNPAT-18" target="JyoXQalbstN1lPwB8Yc5-2">
          <mxGeometry relative="1" as="geometry">
            <Array as="points">
              <mxPoint x="-4440" y="-3110" />
              <mxPoint x="-4440" y="-3185" />
            </Array>
          </mxGeometry>
        </mxCell>
        <mxCell id="fXAQUMxeSu55IE9fR3qF-1" value="&lt;h1&gt;&lt;font style=&quot;font-size: 24px;&quot;&gt;Includes&lt;/font&gt;&lt;/h1&gt;" style="rounded=0;whiteSpace=wrap;html=1;fillColor=none;fontStyle=4;verticalAlign=top;" vertex="1" parent="1">
          <mxGeometry x="-5810" y="-3270" width="1070" height="570" as="geometry" />
        </mxCell>
      </root>
    </mxGraphModel>
  </diagram>
  <diagram id="NlJ0fEtLzM2S92MItdDa" name="Django Back End">
    <mxGraphModel dx="4488" dy="1892" grid="1" gridSize="10" guides="1" tooltips="1" connect="1" arrows="1" fold="1" page="1" pageScale="1" pageWidth="1654" pageHeight="1169" math="0" shadow="0">
      <root>
        <mxCell id="0" />
        <mxCell id="1" parent="0" />
        <mxCell id="Il4CtPkUvhsWLwYRs0RW-1" value="&lt;h1&gt;&lt;u&gt;Django Admin Portal&lt;/u&gt;&lt;/h1&gt;" style="rounded=0;whiteSpace=wrap;html=1;fillColor=none;verticalAlign=top;" parent="1" vertex="1">
          <mxGeometry x="-3250" y="-1100" width="950.2" height="460" as="geometry" />
        </mxCell>
        <mxCell id="Il4CtPkUvhsWLwYRs0RW-2" value="Roles" style="swimlane;fontStyle=0;childLayout=stackLayout;horizontal=1;startSize=30;horizontalStack=0;resizeParent=1;resizeParentMax=0;resizeLast=0;collapsible=1;marginBottom=0;whiteSpace=wrap;html=1;" parent="1" vertex="1">
          <mxGeometry x="-3220" y="-1050" width="140" height="90" as="geometry" />
        </mxCell>
        <mxCell id="Il4CtPkUvhsWLwYRs0RW-3" value="Super Admin" style="text;strokeColor=none;fillColor=default;align=left;verticalAlign=middle;spacingLeft=4;spacingRight=4;overflow=hidden;points=[[0,0.5],[1,0.5]];portConstraint=eastwest;rotatable=0;whiteSpace=wrap;html=1;" parent="Il4CtPkUvhsWLwYRs0RW-2" vertex="1">
          <mxGeometry y="30" width="140" height="30" as="geometry" />
        </mxCell>
        <mxCell id="Il4CtPkUvhsWLwYRs0RW-4" value="Admin" style="text;strokeColor=none;fillColor=default;align=left;verticalAlign=middle;spacingLeft=4;spacingRight=4;overflow=hidden;points=[[0,0.5],[1,0.5]];portConstraint=eastwest;rotatable=0;whiteSpace=wrap;html=1;" parent="Il4CtPkUvhsWLwYRs0RW-2" vertex="1">
          <mxGeometry y="60" width="140" height="30" as="geometry" />
        </mxCell>
        <mxCell id="Il4CtPkUvhsWLwYRs0RW-5" value="Manage Users" style="swimlane;fontStyle=0;childLayout=stackLayout;horizontal=1;startSize=30;horizontalStack=0;resizeParent=1;resizeParentMax=0;resizeLast=0;collapsible=1;marginBottom=0;whiteSpace=wrap;html=1;" parent="1" vertex="1">
          <mxGeometry x="-2800" y="-1005" width="220" height="270" as="geometry" />
        </mxCell>
        <mxCell id="DW24vmLIYgnKXsaIEmLp-9" value="" style="shape=table;startSize=0;container=1;collapsible=0;childLayout=tableLayout;fontSize=12;" vertex="1" parent="Il4CtPkUvhsWLwYRs0RW-5">
          <mxGeometry y="30" width="220" height="240" as="geometry" />
        </mxCell>
        <mxCell id="DW24vmLIYgnKXsaIEmLp-34" style="shape=tableRow;horizontal=0;startSize=0;swimlaneHead=0;swimlaneBody=0;strokeColor=inherit;top=0;left=0;bottom=0;right=0;collapsible=0;dropTarget=0;fillColor=none;points=[[0,0.5],[1,0.5]];portConstraint=eastwest;fontSize=16;" vertex="1" parent="DW24vmLIYgnKXsaIEmLp-9">
          <mxGeometry width="220" height="40" as="geometry" />
        </mxCell>
        <mxCell id="DW24vmLIYgnKXsaIEmLp-35" value="Perm" style="shape=partialRectangle;html=1;whiteSpace=wrap;connectable=0;strokeColor=inherit;overflow=hidden;fillColor=none;top=0;left=0;bottom=0;right=0;pointerEvents=1;fontSize=12;" vertex="1" parent="DW24vmLIYgnKXsaIEmLp-34">
          <mxGeometry width="74" height="40" as="geometry">
            <mxRectangle width="74" height="40" as="alternateBounds" />
          </mxGeometry>
        </mxCell>
        <mxCell id="DW24vmLIYgnKXsaIEmLp-36" value="Super&lt;br&gt;admin" style="shape=partialRectangle;html=1;connectable=0;strokeColor=inherit;overflow=hidden;fillColor=none;top=0;left=0;bottom=0;right=0;pointerEvents=1;fontSize=12;whiteSpace=wrap;" vertex="1" parent="DW24vmLIYgnKXsaIEmLp-34">
          <mxGeometry x="74" width="72" height="40" as="geometry">
            <mxRectangle width="72" height="40" as="alternateBounds" />
          </mxGeometry>
        </mxCell>
        <mxCell id="DW24vmLIYgnKXsaIEmLp-37" value="Admin" style="shape=partialRectangle;html=1;whiteSpace=wrap;connectable=0;strokeColor=inherit;overflow=hidden;fillColor=none;top=0;left=0;bottom=0;right=0;pointerEvents=1;fontSize=12;" vertex="1" parent="DW24vmLIYgnKXsaIEmLp-34">
          <mxGeometry x="146" width="74" height="40" as="geometry">
            <mxRectangle width="74" height="40" as="alternateBounds" />
          </mxGeometry>
        </mxCell>
        <mxCell id="DW24vmLIYgnKXsaIEmLp-10" value="" style="shape=tableRow;horizontal=0;startSize=0;swimlaneHead=0;swimlaneBody=0;strokeColor=inherit;top=0;left=0;bottom=0;right=0;collapsible=0;dropTarget=0;fillColor=none;points=[[0,0.5],[1,0.5]];portConstraint=eastwest;fontSize=16;" vertex="1" parent="DW24vmLIYgnKXsaIEmLp-9">
          <mxGeometry y="40" width="220" height="40" as="geometry" />
        </mxCell>
        <mxCell id="DW24vmLIYgnKXsaIEmLp-11" value="&lt;font style=&quot;font-size: 12px;&quot;&gt;Create User&lt;/font&gt;" style="shape=partialRectangle;html=1;whiteSpace=wrap;connectable=0;strokeColor=inherit;overflow=hidden;fillColor=none;top=0;left=0;bottom=0;right=0;pointerEvents=1;fontSize=16;" vertex="1" parent="DW24vmLIYgnKXsaIEmLp-10">
          <mxGeometry width="74" height="40" as="geometry">
            <mxRectangle width="74" height="40" as="alternateBounds" />
          </mxGeometry>
        </mxCell>
        <mxCell id="DW24vmLIYgnKXsaIEmLp-13" value="&lt;font style=&quot;font-size: 12px;&quot;&gt;Y&lt;/font&gt;" style="shape=partialRectangle;html=1;whiteSpace=wrap;connectable=0;strokeColor=inherit;overflow=hidden;fillColor=none;top=0;left=0;bottom=0;right=0;pointerEvents=1;fontSize=16;" vertex="1" parent="DW24vmLIYgnKXsaIEmLp-10">
          <mxGeometry x="74" width="72" height="40" as="geometry">
            <mxRectangle width="72" height="40" as="alternateBounds" />
          </mxGeometry>
        </mxCell>
        <mxCell id="DW24vmLIYgnKXsaIEmLp-29" value="N" style="shape=partialRectangle;html=1;whiteSpace=wrap;connectable=0;strokeColor=inherit;overflow=hidden;fillColor=none;top=0;left=0;bottom=0;right=0;pointerEvents=1;fontSize=12;" vertex="1" parent="DW24vmLIYgnKXsaIEmLp-10">
          <mxGeometry x="146" width="74" height="40" as="geometry">
            <mxRectangle width="74" height="40" as="alternateBounds" />
          </mxGeometry>
        </mxCell>
        <mxCell id="DW24vmLIYgnKXsaIEmLp-14" value="" style="shape=tableRow;horizontal=0;startSize=0;swimlaneHead=0;swimlaneBody=0;strokeColor=inherit;top=0;left=0;bottom=0;right=0;collapsible=0;dropTarget=0;fillColor=none;points=[[0,0.5],[1,0.5]];portConstraint=eastwest;fontSize=16;" vertex="1" parent="DW24vmLIYgnKXsaIEmLp-9">
          <mxGeometry y="80" width="220" height="40" as="geometry" />
        </mxCell>
        <mxCell id="DW24vmLIYgnKXsaIEmLp-15" value="Add to group" style="shape=partialRectangle;html=1;whiteSpace=wrap;connectable=0;strokeColor=inherit;overflow=hidden;fillColor=none;top=0;left=0;bottom=0;right=0;pointerEvents=1;fontSize=12;" vertex="1" parent="DW24vmLIYgnKXsaIEmLp-14">
          <mxGeometry width="74" height="40" as="geometry">
            <mxRectangle width="74" height="40" as="alternateBounds" />
          </mxGeometry>
        </mxCell>
        <mxCell id="DW24vmLIYgnKXsaIEmLp-17" value="Y" style="shape=partialRectangle;html=1;whiteSpace=wrap;connectable=0;strokeColor=inherit;overflow=hidden;fillColor=none;top=0;left=0;bottom=0;right=0;pointerEvents=1;fontSize=12;" vertex="1" parent="DW24vmLIYgnKXsaIEmLp-14">
          <mxGeometry x="74" width="72" height="40" as="geometry">
            <mxRectangle width="72" height="40" as="alternateBounds" />
          </mxGeometry>
        </mxCell>
        <mxCell id="DW24vmLIYgnKXsaIEmLp-30" value="Y" style="shape=partialRectangle;html=1;whiteSpace=wrap;connectable=0;strokeColor=inherit;overflow=hidden;fillColor=none;top=0;left=0;bottom=0;right=0;pointerEvents=1;fontSize=12;" vertex="1" parent="DW24vmLIYgnKXsaIEmLp-14">
          <mxGeometry x="146" width="74" height="40" as="geometry">
            <mxRectangle width="74" height="40" as="alternateBounds" />
          </mxGeometry>
        </mxCell>
        <mxCell id="DW24vmLIYgnKXsaIEmLp-18" value="" style="shape=tableRow;horizontal=0;startSize=0;swimlaneHead=0;swimlaneBody=0;strokeColor=inherit;top=0;left=0;bottom=0;right=0;collapsible=0;dropTarget=0;fillColor=none;points=[[0,0.5],[1,0.5]];portConstraint=eastwest;fontSize=16;" vertex="1" parent="DW24vmLIYgnKXsaIEmLp-9">
          <mxGeometry y="120" width="220" height="40" as="geometry" />
        </mxCell>
        <mxCell id="DW24vmLIYgnKXsaIEmLp-19" value="Create Group" style="shape=partialRectangle;html=1;whiteSpace=wrap;connectable=0;strokeColor=inherit;overflow=hidden;fillColor=none;top=0;left=0;bottom=0;right=0;pointerEvents=1;fontSize=12;" vertex="1" parent="DW24vmLIYgnKXsaIEmLp-18">
          <mxGeometry width="74" height="40" as="geometry">
            <mxRectangle width="74" height="40" as="alternateBounds" />
          </mxGeometry>
        </mxCell>
        <mxCell id="DW24vmLIYgnKXsaIEmLp-21" value="Y" style="shape=partialRectangle;html=1;whiteSpace=wrap;connectable=0;strokeColor=inherit;overflow=hidden;fillColor=none;top=0;left=0;bottom=0;right=0;pointerEvents=1;fontSize=12;" vertex="1" parent="DW24vmLIYgnKXsaIEmLp-18">
          <mxGeometry x="74" width="72" height="40" as="geometry">
            <mxRectangle width="72" height="40" as="alternateBounds" />
          </mxGeometry>
        </mxCell>
        <mxCell id="DW24vmLIYgnKXsaIEmLp-31" value="N" style="shape=partialRectangle;html=1;whiteSpace=wrap;connectable=0;strokeColor=inherit;overflow=hidden;fillColor=none;top=0;left=0;bottom=0;right=0;pointerEvents=1;fontSize=12;" vertex="1" parent="DW24vmLIYgnKXsaIEmLp-18">
          <mxGeometry x="146" width="74" height="40" as="geometry">
            <mxRectangle width="74" height="40" as="alternateBounds" />
          </mxGeometry>
        </mxCell>
        <mxCell id="DW24vmLIYgnKXsaIEmLp-23" style="shape=tableRow;horizontal=0;startSize=0;swimlaneHead=0;swimlaneBody=0;strokeColor=inherit;top=0;left=0;bottom=0;right=0;collapsible=0;dropTarget=0;fillColor=none;points=[[0,0.5],[1,0.5]];portConstraint=eastwest;fontSize=16;" vertex="1" parent="DW24vmLIYgnKXsaIEmLp-9">
          <mxGeometry y="160" width="220" height="40" as="geometry" />
        </mxCell>
        <mxCell id="DW24vmLIYgnKXsaIEmLp-24" value="Delete Group" style="shape=partialRectangle;html=1;whiteSpace=wrap;connectable=0;strokeColor=inherit;overflow=hidden;fillColor=none;top=0;left=0;bottom=0;right=0;pointerEvents=1;fontSize=12;" vertex="1" parent="DW24vmLIYgnKXsaIEmLp-23">
          <mxGeometry width="74" height="40" as="geometry">
            <mxRectangle width="74" height="40" as="alternateBounds" />
          </mxGeometry>
        </mxCell>
        <mxCell id="DW24vmLIYgnKXsaIEmLp-25" value="Y" style="shape=partialRectangle;html=1;whiteSpace=wrap;connectable=0;strokeColor=inherit;overflow=hidden;fillColor=none;top=0;left=0;bottom=0;right=0;pointerEvents=1;fontSize=12;" vertex="1" parent="DW24vmLIYgnKXsaIEmLp-23">
          <mxGeometry x="74" width="72" height="40" as="geometry">
            <mxRectangle width="72" height="40" as="alternateBounds" />
          </mxGeometry>
        </mxCell>
        <mxCell id="DW24vmLIYgnKXsaIEmLp-32" value="N" style="shape=partialRectangle;html=1;whiteSpace=wrap;connectable=0;strokeColor=inherit;overflow=hidden;fillColor=none;top=0;left=0;bottom=0;right=0;pointerEvents=1;fontSize=12;" vertex="1" parent="DW24vmLIYgnKXsaIEmLp-23">
          <mxGeometry x="146" width="74" height="40" as="geometry">
            <mxRectangle width="74" height="40" as="alternateBounds" />
          </mxGeometry>
        </mxCell>
        <mxCell id="DW24vmLIYgnKXsaIEmLp-26" style="shape=tableRow;horizontal=0;startSize=0;swimlaneHead=0;swimlaneBody=0;strokeColor=inherit;top=0;left=0;bottom=0;right=0;collapsible=0;dropTarget=0;fillColor=none;points=[[0,0.5],[1,0.5]];portConstraint=eastwest;fontSize=16;" vertex="1" parent="DW24vmLIYgnKXsaIEmLp-9">
          <mxGeometry y="200" width="220" height="40" as="geometry" />
        </mxCell>
        <mxCell id="DW24vmLIYgnKXsaIEmLp-27" value="Mange Group Perms" style="shape=partialRectangle;html=1;whiteSpace=wrap;connectable=0;strokeColor=inherit;overflow=hidden;fillColor=none;top=0;left=0;bottom=0;right=0;pointerEvents=1;fontSize=12;" vertex="1" parent="DW24vmLIYgnKXsaIEmLp-26">
          <mxGeometry width="74" height="40" as="geometry">
            <mxRectangle width="74" height="40" as="alternateBounds" />
          </mxGeometry>
        </mxCell>
        <mxCell id="DW24vmLIYgnKXsaIEmLp-28" value="Y" style="shape=partialRectangle;html=1;whiteSpace=wrap;connectable=0;strokeColor=inherit;overflow=hidden;fillColor=none;top=0;left=0;bottom=0;right=0;pointerEvents=1;fontSize=12;" vertex="1" parent="DW24vmLIYgnKXsaIEmLp-26">
          <mxGeometry x="74" width="72" height="40" as="geometry">
            <mxRectangle width="72" height="40" as="alternateBounds" />
          </mxGeometry>
        </mxCell>
        <mxCell id="DW24vmLIYgnKXsaIEmLp-33" value="Y" style="shape=partialRectangle;html=1;whiteSpace=wrap;connectable=0;strokeColor=inherit;overflow=hidden;fillColor=none;top=0;left=0;bottom=0;right=0;pointerEvents=1;fontSize=12;" vertex="1" parent="DW24vmLIYgnKXsaIEmLp-26">
          <mxGeometry x="146" width="74" height="40" as="geometry">
            <mxRectangle width="74" height="40" as="alternateBounds" />
          </mxGeometry>
        </mxCell>
      </root>
    </mxGraphModel>
  </diagram>
  <diagram id="d91gR_yWZgZOkvb5QG8-" name="Page Structures and Types Matt">
    <mxGraphModel dx="1416" dy="868" grid="1" gridSize="10" guides="1" tooltips="1" connect="1" arrows="1" fold="1" page="1" pageScale="1" pageWidth="1169" pageHeight="1654" math="0" shadow="0">
      <root>
        <mxCell id="0" />
        <mxCell id="1" parent="0" />
        <mxCell id="yXv2WdkeAa7BBZDy9WpI-1" value="Page Types" style="swimlane;fontStyle=3;align=center;verticalAlign=top;childLayout=stackLayout;horizontal=1;startSize=26;horizontalStack=0;resizeParent=1;resizeLast=0;collapsible=1;marginBottom=0;rounded=0;shadow=0;strokeWidth=2;labelBackgroundColor=none;fillColor=#a20025;fontColor=#ffffff;strokeColor=#6F0000;" parent="1" vertex="1">
          <mxGeometry x="80" y="40" width="160" height="182" as="geometry">
            <mxRectangle x="230" y="140" width="160" height="26" as="alternateBounds" />
          </mxGeometry>
        </mxCell>
        <mxCell id="yXv2WdkeAa7BBZDy9WpI-2" value="Home" style="text;align=left;verticalAlign=top;spacingLeft=4;spacingRight=4;overflow=hidden;rotatable=0;points=[[0,0.5],[1,0.5]];portConstraint=eastwest;labelBackgroundColor=none;fontStyle=2;fillColor=default;strokeWidth=2;" parent="yXv2WdkeAa7BBZDy9WpI-1" vertex="1">
          <mxGeometry y="26" width="160" height="26" as="geometry" />
        </mxCell>
        <mxCell id="yXv2WdkeAa7BBZDy9WpI-3" value="Story" style="text;align=left;verticalAlign=top;spacingLeft=4;spacingRight=4;overflow=hidden;rotatable=0;points=[[0,0.5],[1,0.5]];portConstraint=eastwest;rounded=0;shadow=0;html=0;labelBackgroundColor=none;fontStyle=2;fillColor=default;strokeWidth=2;" parent="yXv2WdkeAa7BBZDy9WpI-1" vertex="1">
          <mxGeometry y="52" width="160" height="26" as="geometry" />
        </mxCell>
        <mxCell id="yXv2WdkeAa7BBZDy9WpI-4" value="Chapter" style="text;align=left;verticalAlign=top;spacingLeft=4;spacingRight=4;overflow=hidden;rotatable=0;points=[[0,0.5],[1,0.5]];portConstraint=eastwest;rounded=0;shadow=0;html=0;labelBackgroundColor=none;fontStyle=2;fillColor=default;strokeWidth=2;" parent="yXv2WdkeAa7BBZDy9WpI-1" vertex="1">
          <mxGeometry y="78" width="160" height="26" as="geometry" />
        </mxCell>
        <mxCell id="yXv2WdkeAa7BBZDy9WpI-5" value="Collection" style="text;align=left;verticalAlign=top;spacingLeft=4;spacingRight=4;overflow=hidden;rotatable=0;points=[[0,0.5],[1,0.5]];portConstraint=eastwest;rounded=0;shadow=0;html=0;labelBackgroundColor=none;fontStyle=2;fillColor=default;strokeWidth=2;" parent="yXv2WdkeAa7BBZDy9WpI-1" vertex="1">
          <mxGeometry y="104" width="160" height="26" as="geometry" />
        </mxCell>
        <mxCell id="yXv2WdkeAa7BBZDy9WpI-6" value="Series" style="text;align=left;verticalAlign=top;spacingLeft=4;spacingRight=4;overflow=hidden;rotatable=0;points=[[0,0.5],[1,0.5]];portConstraint=eastwest;rounded=0;shadow=0;html=0;labelBackgroundColor=none;fontStyle=2;fillColor=default;strokeWidth=2;" parent="yXv2WdkeAa7BBZDy9WpI-1" vertex="1">
          <mxGeometry y="130" width="160" height="26" as="geometry" />
        </mxCell>
        <mxCell id="yXv2WdkeAa7BBZDy9WpI-7" value="About Me" style="text;align=left;verticalAlign=top;spacingLeft=4;spacingRight=4;overflow=hidden;rotatable=0;points=[[0,0.5],[1,0.5]];portConstraint=eastwest;rounded=0;shadow=0;html=0;labelBackgroundColor=none;fontStyle=2;fillColor=default;strokeWidth=2;" parent="yXv2WdkeAa7BBZDy9WpI-1" vertex="1">
          <mxGeometry y="156" width="160" height="26" as="geometry" />
        </mxCell>
        <mxCell id="yXv2WdkeAa7BBZDy9WpI-8" value="Story" style="swimlane;fontStyle=2;align=center;verticalAlign=top;childLayout=stackLayout;horizontal=1;startSize=26;horizontalStack=0;resizeParent=1;resizeLast=0;collapsible=1;marginBottom=0;rounded=0;shadow=0;strokeWidth=2;labelBackgroundColor=none;fillColor=#008a00;fontColor=#ffffff;strokeColor=#005700;" parent="1" vertex="1">
          <mxGeometry x="320" y="40" width="240" height="80" as="geometry">
            <mxRectangle x="550" y="140" width="160" height="26" as="alternateBounds" />
          </mxGeometry>
        </mxCell>
        <mxCell id="yXv2WdkeAa7BBZDy9WpI-9" value="Story Summary" style="text;align=left;verticalAlign=top;spacingLeft=4;spacingRight=4;overflow=hidden;rotatable=0;points=[[0,0.5],[1,0.5]];portConstraint=eastwest;rounded=0;shadow=0;html=0;labelBackgroundColor=none;fillColor=default;strokeWidth=2;" parent="yXv2WdkeAa7BBZDy9WpI-8" vertex="1">
          <mxGeometry y="26" width="240" height="26" as="geometry" />
        </mxCell>
        <mxCell id="yXv2WdkeAa7BBZDy9WpI-10" value="" style="endArrow=classic;html=1;rounded=0;fontSize=12;startSize=8;endSize=8;labelBackgroundColor=none;fontColor=default;fillColor=#a20025;strokeColor=#6F0000;edgeStyle=orthogonalEdgeStyle;entryX=0;entryY=0;entryDx=0;entryDy=0;exitX=1;exitY=0.5;exitDx=0;exitDy=0;strokeWidth=2;" parent="1" source="yXv2WdkeAa7BBZDy9WpI-3" target="yXv2WdkeAa7BBZDy9WpI-8" edge="1">
          <mxGeometry width="50" height="50" relative="1" as="geometry">
            <mxPoint x="250" y="80" as="sourcePoint" />
            <mxPoint x="440" y="40" as="targetPoint" />
            <Array as="points">
              <mxPoint x="240" y="100" />
              <mxPoint x="280" y="100" />
              <mxPoint x="280" y="40" />
            </Array>
          </mxGeometry>
        </mxCell>
        <mxCell id="yXv2WdkeAa7BBZDy9WpI-11" value="About Me" style="swimlane;fontStyle=2;align=center;verticalAlign=top;childLayout=stackLayout;horizontal=1;startSize=26;horizontalStack=0;resizeParent=1;resizeLast=0;collapsible=1;marginBottom=0;rounded=0;shadow=0;strokeWidth=2;labelBackgroundColor=none;fillColor=#6d8764;fontColor=#ffffff;strokeColor=#3A5431;" parent="1" vertex="1">
          <mxGeometry x="320" y="400" width="240" height="74" as="geometry">
            <mxRectangle x="550" y="140" width="160" height="26" as="alternateBounds" />
          </mxGeometry>
        </mxCell>
        <mxCell id="yXv2WdkeAa7BBZDy9WpI-12" value="Profile Waffle" style="text;align=left;verticalAlign=top;spacingLeft=4;spacingRight=4;overflow=hidden;rotatable=0;points=[[0,0.5],[1,0.5]];portConstraint=eastwest;rounded=0;shadow=0;html=0;labelBackgroundColor=none;fillColor=default;strokeWidth=2;" parent="yXv2WdkeAa7BBZDy9WpI-11" vertex="1">
          <mxGeometry y="26" width="240" height="24" as="geometry" />
        </mxCell>
        <mxCell id="yXv2WdkeAa7BBZDy9WpI-13" value="Social Media Links" style="text;align=left;verticalAlign=top;spacingLeft=4;spacingRight=4;overflow=hidden;rotatable=0;points=[[0,0.5],[1,0.5]];portConstraint=eastwest;rounded=0;shadow=0;html=0;labelBackgroundColor=none;fillColor=default;strokeWidth=2;" parent="yXv2WdkeAa7BBZDy9WpI-11" vertex="1">
          <mxGeometry y="50" width="240" height="24" as="geometry" />
        </mxCell>
        <mxCell id="yXv2WdkeAa7BBZDy9WpI-14" style="edgeStyle=none;curved=1;rounded=0;orthogonalLoop=1;jettySize=auto;html=1;exitX=0.5;exitY=0;exitDx=0;exitDy=0;strokeColor=#E07A5F;fontSize=12;fontColor=#393C56;startSize=8;endSize=8;fillColor=#F2CC8F;strokeWidth=2;" parent="1" edge="1">
          <mxGeometry relative="1" as="geometry">
            <mxPoint x="320" y="550.0000000000002" as="sourcePoint" />
            <mxPoint x="320" y="550.0000000000002" as="targetPoint" />
          </mxGeometry>
        </mxCell>
        <mxCell id="yXv2WdkeAa7BBZDy9WpI-15" value="Chapter" style="swimlane;fontStyle=2;align=center;verticalAlign=top;childLayout=stackLayout;horizontal=1;startSize=26;horizontalStack=0;resizeParent=1;resizeLast=0;collapsible=1;marginBottom=0;rounded=0;shadow=0;strokeWidth=2;labelBackgroundColor=none;fillColor=#0050ef;fontColor=#ffffff;strokeColor=#001DBC;" parent="1" vertex="1">
          <mxGeometry x="680" y="80" width="240" height="130" as="geometry">
            <mxRectangle x="550" y="140" width="160" height="26" as="alternateBounds" />
          </mxGeometry>
        </mxCell>
        <mxCell id="yXv2WdkeAa7BBZDy9WpI-16" value="Story" style="text;align=left;verticalAlign=top;spacingLeft=4;spacingRight=4;overflow=hidden;rotatable=0;points=[[0,0.5],[1,0.5]];portConstraint=eastwest;rounded=0;shadow=0;html=0;labelBackgroundColor=none;fillColor=default;strokeWidth=2;" parent="yXv2WdkeAa7BBZDy9WpI-15" vertex="1">
          <mxGeometry y="26" width="240" height="26" as="geometry" />
        </mxCell>
        <mxCell id="yXv2WdkeAa7BBZDy9WpI-17" value="Chapters" style="text;align=left;verticalAlign=top;spacingLeft=4;spacingRight=4;overflow=hidden;rotatable=0;points=[[0,0.5],[1,0.5]];portConstraint=eastwest;rounded=0;shadow=0;html=0;labelBackgroundColor=none;fillColor=default;strokeWidth=2;" parent="yXv2WdkeAa7BBZDy9WpI-15" vertex="1">
          <mxGeometry y="52" width="240" height="26" as="geometry" />
        </mxCell>
        <mxCell id="yXv2WdkeAa7BBZDy9WpI-18" value="Audio Embed" style="text;align=left;verticalAlign=top;spacingLeft=4;spacingRight=4;overflow=hidden;rotatable=0;points=[[0,0.5],[1,0.5]];portConstraint=eastwest;rounded=0;shadow=0;html=0;labelBackgroundColor=none;fillColor=default;strokeWidth=2;" parent="yXv2WdkeAa7BBZDy9WpI-15" vertex="1">
          <mxGeometry y="78" width="240" height="24" as="geometry" />
        </mxCell>
        <mxCell id="yXv2WdkeAa7BBZDy9WpI-19" value="Comments" style="text;align=left;verticalAlign=top;spacingLeft=4;spacingRight=4;overflow=hidden;rotatable=0;points=[[0,0.5],[1,0.5]];portConstraint=eastwest;rounded=0;shadow=0;html=0;labelBackgroundColor=none;fillColor=default;strokeWidth=2;" parent="yXv2WdkeAa7BBZDy9WpI-15" vertex="1">
          <mxGeometry y="102" width="240" height="26" as="geometry" />
        </mxCell>
        <mxCell id="yXv2WdkeAa7BBZDy9WpI-20" style="edgeStyle=orthogonalEdgeStyle;rounded=0;orthogonalLoop=1;jettySize=auto;html=1;exitX=1;exitY=0.5;exitDx=0;exitDy=0;entryX=0;entryY=0;entryDx=0;entryDy=0;strokeColor=#005700;fontSize=12;fontColor=#393C56;startSize=8;endSize=8;fillColor=#008a00;strokeWidth=2;" parent="1" source="yXv2WdkeAa7BBZDy9WpI-21" target="yXv2WdkeAa7BBZDy9WpI-15" edge="1">
          <mxGeometry relative="1" as="geometry">
            <Array as="points">
              <mxPoint x="620" y="105" />
              <mxPoint x="620" y="80" />
            </Array>
          </mxGeometry>
        </mxCell>
        <mxCell id="yXv2WdkeAa7BBZDy9WpI-21" value="Chapters" style="text;align=left;verticalAlign=top;spacingLeft=4;spacingRight=4;overflow=hidden;rotatable=0;points=[[0,0.5],[1,0.5]];portConstraint=eastwest;rounded=0;shadow=0;html=0;labelBackgroundColor=none;fillColor=default;strokeWidth=2;" parent="1" vertex="1">
          <mxGeometry x="320" y="92" width="240" height="26" as="geometry" />
        </mxCell>
        <mxCell id="yXv2WdkeAa7BBZDy9WpI-22" style="edgeStyle=none;curved=1;rounded=0;orthogonalLoop=1;jettySize=auto;html=1;exitX=0.5;exitY=0;exitDx=0;exitDy=0;strokeColor=#E07A5F;fontSize=12;fontColor=#393C56;startSize=8;endSize=8;fillColor=#F2CC8F;strokeWidth=2;" parent="1" source="yXv2WdkeAa7BBZDy9WpI-15" target="yXv2WdkeAa7BBZDy9WpI-15" edge="1">
          <mxGeometry relative="1" as="geometry" />
        </mxCell>
        <mxCell id="yXv2WdkeAa7BBZDy9WpI-23" value="Collection" style="swimlane;fontStyle=2;align=center;verticalAlign=top;childLayout=stackLayout;horizontal=1;startSize=26;horizontalStack=0;resizeParent=1;resizeLast=0;collapsible=1;marginBottom=0;rounded=0;shadow=0;strokeWidth=2;labelBackgroundColor=none;fillColor=#fa6800;fontColor=#000000;strokeColor=#C73500;" parent="1" vertex="1">
          <mxGeometry x="320" y="160" width="240" height="80" as="geometry">
            <mxRectangle x="550" y="140" width="160" height="26" as="alternateBounds" />
          </mxGeometry>
        </mxCell>
        <mxCell id="yXv2WdkeAa7BBZDy9WpI-24" value="Story Summary" style="text;align=left;verticalAlign=top;spacingLeft=4;spacingRight=4;overflow=hidden;rotatable=0;points=[[0,0.5],[1,0.5]];portConstraint=eastwest;rounded=0;shadow=0;html=0;labelBackgroundColor=none;fillColor=default;strokeWidth=2;" parent="yXv2WdkeAa7BBZDy9WpI-23" vertex="1">
          <mxGeometry y="26" width="240" height="26" as="geometry" />
        </mxCell>
        <mxCell id="yXv2WdkeAa7BBZDy9WpI-25" value="Story EPUB Downloads" style="text;align=left;verticalAlign=top;spacingLeft=4;spacingRight=4;overflow=hidden;rotatable=0;points=[[0,0.5],[1,0.5]];portConstraint=eastwest;labelBackgroundColor=none;fillColor=default;strokeWidth=2;" parent="yXv2WdkeAa7BBZDy9WpI-23" vertex="1">
          <mxGeometry y="52" width="240" height="26" as="geometry" />
        </mxCell>
        <mxCell id="yXv2WdkeAa7BBZDy9WpI-26" style="edgeStyle=orthogonalEdgeStyle;rounded=0;orthogonalLoop=1;jettySize=auto;html=1;exitX=1;exitY=0.5;exitDx=0;exitDy=0;strokeColor=#6F0000;fontSize=12;fontColor=#393C56;startSize=8;endSize=8;fillColor=#a20025;strokeWidth=2;" parent="1" source="yXv2WdkeAa7BBZDy9WpI-5" edge="1">
          <mxGeometry relative="1" as="geometry">
            <mxPoint x="320" y="157" as="targetPoint" />
            <Array as="points">
              <mxPoint x="320" y="157" />
            </Array>
          </mxGeometry>
        </mxCell>
        <mxCell id="yXv2WdkeAa7BBZDy9WpI-27" value="Series" style="swimlane;fontStyle=2;align=center;verticalAlign=top;childLayout=stackLayout;horizontal=1;startSize=26;horizontalStack=0;resizeParent=1;resizeLast=0;collapsible=1;marginBottom=0;rounded=0;shadow=0;strokeWidth=2;labelBackgroundColor=none;fillColor=#76608a;fontColor=#ffffff;strokeColor=#432D57;" parent="1" vertex="1">
          <mxGeometry x="320" y="280" width="240" height="80" as="geometry">
            <mxRectangle x="550" y="140" width="160" height="26" as="alternateBounds" />
          </mxGeometry>
        </mxCell>
        <mxCell id="yXv2WdkeAa7BBZDy9WpI-28" value="Series Summary" style="text;align=left;verticalAlign=top;spacingLeft=4;spacingRight=4;overflow=hidden;rotatable=0;points=[[0,0.5],[1,0.5]];portConstraint=eastwest;rounded=0;shadow=0;html=0;labelBackgroundColor=none;fillColor=default;strokeWidth=2;" parent="yXv2WdkeAa7BBZDy9WpI-27" vertex="1">
          <mxGeometry y="26" width="240" height="26" as="geometry" />
        </mxCell>
        <mxCell id="yXv2WdkeAa7BBZDy9WpI-29" style="edgeStyle=orthogonalEdgeStyle;rounded=0;orthogonalLoop=1;jettySize=auto;html=1;exitX=1;exitY=0.5;exitDx=0;exitDy=0;entryX=0.5;entryY=0;entryDx=0;entryDy=0;strokeColor=#432D57;fontSize=12;fontColor=#393C56;startSize=8;endSize=8;fillColor=#76608a;strokeWidth=2;" parent="1" source="yXv2WdkeAa7BBZDy9WpI-30" target="yXv2WdkeAa7BBZDy9WpI-8" edge="1">
          <mxGeometry relative="1" as="geometry">
            <Array as="points">
              <mxPoint x="560" y="350" />
              <mxPoint x="960" y="350" />
              <mxPoint x="960" y="10" />
              <mxPoint x="440" y="10" />
            </Array>
          </mxGeometry>
        </mxCell>
        <mxCell id="yXv2WdkeAa7BBZDy9WpI-30" value="Stories" style="text;align=left;verticalAlign=top;spacingLeft=4;spacingRight=4;overflow=hidden;rotatable=0;points=[[0,0.5],[1,0.5]];portConstraint=eastwest;labelBackgroundColor=none;fillColor=default;strokeWidth=2;" parent="1" vertex="1">
          <mxGeometry x="320" y="332" width="240" height="26" as="geometry" />
        </mxCell>
        <mxCell id="yXv2WdkeAa7BBZDy9WpI-31" style="edgeStyle=orthogonalEdgeStyle;rounded=0;orthogonalLoop=1;jettySize=auto;html=1;exitX=1;exitY=0.5;exitDx=0;exitDy=0;entryX=0;entryY=0;entryDx=0;entryDy=0;strokeColor=#6F0000;fontSize=12;fontColor=#393C56;startSize=8;endSize=8;fillColor=#a20025;strokeWidth=2;" parent="1" source="yXv2WdkeAa7BBZDy9WpI-6" target="yXv2WdkeAa7BBZDy9WpI-27" edge="1">
          <mxGeometry relative="1" as="geometry">
            <Array as="points">
              <mxPoint x="280" y="183" />
              <mxPoint x="280" y="280" />
            </Array>
          </mxGeometry>
        </mxCell>
        <mxCell id="yXv2WdkeAa7BBZDy9WpI-32" style="edgeStyle=orthogonalEdgeStyle;rounded=0;orthogonalLoop=1;jettySize=auto;html=1;exitX=1;exitY=0.5;exitDx=0;exitDy=0;entryX=1;entryY=0;entryDx=0;entryDy=0;strokeColor=#006EAF;fontSize=12;fontColor=#393C56;startSize=8;endSize=8;fillColor=#1ba1e2;strokeWidth=2;" parent="1" source="yXv2WdkeAa7BBZDy9WpI-16" target="yXv2WdkeAa7BBZDy9WpI-8" edge="1">
          <mxGeometry relative="1" as="geometry" />
        </mxCell>
        <mxCell id="yXv2WdkeAa7BBZDy9WpI-33" style="edgeStyle=orthogonalEdgeStyle;rounded=0;orthogonalLoop=1;jettySize=auto;html=1;exitX=1;exitY=0.5;exitDx=0;exitDy=0;entryX=0;entryY=0;entryDx=0;entryDy=0;strokeColor=#6F0000;fontSize=12;fontColor=#393C56;startSize=8;endSize=8;fillColor=#a20025;strokeWidth=2;" parent="1" source="yXv2WdkeAa7BBZDy9WpI-7" target="yXv2WdkeAa7BBZDy9WpI-11" edge="1">
          <mxGeometry relative="1" as="geometry">
            <Array as="points">
              <mxPoint x="260" y="209" />
              <mxPoint x="260" y="400" />
            </Array>
          </mxGeometry>
        </mxCell>
        <mxCell id="yXv2WdkeAa7BBZDy9WpI-34" value="Page Features" style="swimlane;fontStyle=3;align=center;verticalAlign=top;childLayout=stackLayout;horizontal=1;startSize=26;horizontalStack=0;resizeParent=1;resizeLast=0;collapsible=1;marginBottom=0;rounded=0;shadow=0;strokeWidth=2;labelBackgroundColor=none;fillColor=#f5f5f5;strokeColor=#666666;fontColor=#333333;" parent="1" vertex="1">
          <mxGeometry x="80" y="560" width="240" height="182" as="geometry">
            <mxRectangle x="230" y="140" width="160" height="26" as="alternateBounds" />
          </mxGeometry>
        </mxCell>
        <mxCell id="yXv2WdkeAa7BBZDy9WpI-35" value="Header (Title?)" style="text;align=left;verticalAlign=top;spacingLeft=4;spacingRight=4;overflow=hidden;rotatable=0;points=[[0,0.5],[1,0.5]];portConstraint=eastwest;labelBackgroundColor=none;fontStyle=2;fillColor=default;strokeWidth=2;" parent="yXv2WdkeAa7BBZDy9WpI-34" vertex="1">
          <mxGeometry y="26" width="240" height="26" as="geometry" />
        </mxCell>
        <mxCell id="yXv2WdkeAa7BBZDy9WpI-36" value="Feature Pic" style="text;align=left;verticalAlign=top;spacingLeft=4;spacingRight=4;overflow=hidden;rotatable=0;points=[[0,0.5],[1,0.5]];portConstraint=eastwest;rounded=0;shadow=0;html=0;labelBackgroundColor=none;fontStyle=2;fillColor=default;strokeWidth=2;" parent="yXv2WdkeAa7BBZDy9WpI-34" vertex="1">
          <mxGeometry y="52" width="240" height="26" as="geometry" />
        </mxCell>
        <mxCell id="yXv2WdkeAa7BBZDy9WpI-37" value="Nav bar" style="text;align=left;verticalAlign=top;spacingLeft=4;spacingRight=4;overflow=hidden;rotatable=0;points=[[0,0.5],[1,0.5]];portConstraint=eastwest;rounded=0;shadow=0;html=0;labelBackgroundColor=none;fontStyle=2;fillColor=default;strokeWidth=2;" parent="yXv2WdkeAa7BBZDy9WpI-34" vertex="1">
          <mxGeometry y="78" width="240" height="26" as="geometry" />
        </mxCell>
        <mxCell id="yXv2WdkeAa7BBZDy9WpI-38" value="Side bar (Social Media Links?)" style="text;align=left;verticalAlign=top;spacingLeft=4;spacingRight=4;overflow=hidden;rotatable=0;points=[[0,0.5],[1,0.5]];portConstraint=eastwest;rounded=0;shadow=0;html=0;labelBackgroundColor=none;fontStyle=2;fillColor=default;strokeWidth=2;" parent="yXv2WdkeAa7BBZDy9WpI-34" vertex="1">
          <mxGeometry y="104" width="240" height="26" as="geometry" />
        </mxCell>
        <mxCell id="yXv2WdkeAa7BBZDy9WpI-39" value="Footer (comments?)" style="text;align=left;verticalAlign=top;spacingLeft=4;spacingRight=4;overflow=hidden;rotatable=0;points=[[0,0.5],[1,0.5]];portConstraint=eastwest;rounded=0;shadow=0;html=0;labelBackgroundColor=none;fontStyle=2;fillColor=default;strokeWidth=2;" parent="yXv2WdkeAa7BBZDy9WpI-34" vertex="1">
          <mxGeometry y="130" width="240" height="26" as="geometry" />
        </mxCell>
        <mxCell id="yXv2WdkeAa7BBZDy9WpI-40" value="Alerts (Role lock alerts/ adult content etc)" style="text;align=left;verticalAlign=top;spacingLeft=4;spacingRight=4;overflow=hidden;rotatable=0;points=[[0,0.5],[1,0.5]];portConstraint=eastwest;rounded=0;shadow=0;html=0;labelBackgroundColor=none;fontStyle=2;fillColor=default;strokeWidth=2;" parent="yXv2WdkeAa7BBZDy9WpI-34" vertex="1">
          <mxGeometry y="156" width="240" height="26" as="geometry" />
        </mxCell>
        <mxCell id="yXv2WdkeAa7BBZDy9WpI-41" value="Nav Bar" style="swimlane;fontStyle=2;align=center;verticalAlign=top;childLayout=stackLayout;horizontal=1;startSize=26;horizontalStack=0;resizeParent=1;resizeLast=0;collapsible=1;marginBottom=0;rounded=0;shadow=0;strokeWidth=2;labelBackgroundColor=none;fillColor=#f5f5f5;fontColor=#333333;strokeColor=#666666;" parent="1" vertex="1">
          <mxGeometry x="80" y="800" width="240" height="276" as="geometry">
            <mxRectangle x="550" y="140" width="160" height="26" as="alternateBounds" />
          </mxGeometry>
        </mxCell>
        <mxCell id="yXv2WdkeAa7BBZDy9WpI-42" value="Home" style="text;align=left;verticalAlign=top;spacingLeft=4;spacingRight=4;overflow=hidden;rotatable=0;points=[[0,0.5],[1,0.5]];portConstraint=eastwest;rounded=0;shadow=0;html=0;labelBackgroundColor=none;fillColor=default;strokeWidth=2;" parent="yXv2WdkeAa7BBZDy9WpI-41" vertex="1">
          <mxGeometry y="26" width="240" height="26" as="geometry" />
        </mxCell>
        <mxCell id="yXv2WdkeAa7BBZDy9WpI-43" value="" style="line;html=1;strokeWidth=2;align=left;verticalAlign=middle;spacingTop=-1;spacingLeft=3;spacingRight=3;rotatable=0;labelPosition=right;points=[];portConstraint=eastwest;labelBackgroundColor=none;fillColor=#f5f5f5;fontColor=#333333;strokeColor=#666666;" parent="yXv2WdkeAa7BBZDy9WpI-41" vertex="1">
          <mxGeometry y="52" width="240" height="8" as="geometry" />
        </mxCell>
        <mxCell id="yXv2WdkeAa7BBZDy9WpI-44" value="Original Novels" style="text;align=left;verticalAlign=top;spacingLeft=4;spacingRight=4;overflow=hidden;rotatable=0;points=[[0,0.5],[1,0.5]];portConstraint=eastwest;rounded=0;shadow=0;html=0;labelBackgroundColor=none;fillColor=default;strokeWidth=2;" parent="yXv2WdkeAa7BBZDy9WpI-41" vertex="1">
          <mxGeometry y="60" width="240" height="26" as="geometry" />
        </mxCell>
        <mxCell id="yXv2WdkeAa7BBZDy9WpI-45" value="Original Web Serials" style="text;align=left;verticalAlign=top;spacingLeft=4;spacingRight=4;overflow=hidden;rotatable=0;points=[[0,0.5],[1,0.5]];portConstraint=eastwest;rounded=0;shadow=0;html=0;labelBackgroundColor=none;fillColor=default;strokeWidth=2;" parent="yXv2WdkeAa7BBZDy9WpI-41" vertex="1">
          <mxGeometry y="86" width="240" height="26" as="geometry" />
        </mxCell>
        <mxCell id="yXv2WdkeAa7BBZDy9WpI-46" value="Original Novellas and Short Stories" style="text;align=left;verticalAlign=top;spacingLeft=4;spacingRight=4;overflow=hidden;rotatable=0;points=[[0,0.5],[1,0.5]];portConstraint=eastwest;rounded=0;shadow=0;html=0;labelBackgroundColor=none;fillColor=default;strokeWidth=2;" parent="yXv2WdkeAa7BBZDy9WpI-41" vertex="1">
          <mxGeometry y="112" width="240" height="26" as="geometry" />
        </mxCell>
        <mxCell id="yXv2WdkeAa7BBZDy9WpI-47" value="" style="line;html=1;strokeWidth=2;align=left;verticalAlign=middle;spacingTop=-1;spacingLeft=3;spacingRight=3;rotatable=0;labelPosition=right;points=[];portConstraint=eastwest;labelBackgroundColor=none;fillColor=#f5f5f5;fontColor=#333333;strokeColor=#666666;" parent="yXv2WdkeAa7BBZDy9WpI-41" vertex="1">
          <mxGeometry y="138" width="240" height="8" as="geometry" />
        </mxCell>
        <mxCell id="yXv2WdkeAa7BBZDy9WpI-48" value="Fanfiction Web Serials" style="text;align=left;verticalAlign=top;spacingLeft=4;spacingRight=4;overflow=hidden;rotatable=0;points=[[0,0.5],[1,0.5]];portConstraint=eastwest;labelBackgroundColor=none;fillColor=default;strokeWidth=2;" parent="yXv2WdkeAa7BBZDy9WpI-41" vertex="1">
          <mxGeometry y="146" width="240" height="26" as="geometry" />
        </mxCell>
        <mxCell id="yXv2WdkeAa7BBZDy9WpI-49" value="Fanfiction Novellas and Short Stories" style="text;align=left;verticalAlign=top;spacingLeft=4;spacingRight=4;overflow=hidden;rotatable=0;points=[[0,0.5],[1,0.5]];portConstraint=eastwest;labelBackgroundColor=none;fillColor=default;strokeWidth=2;" parent="yXv2WdkeAa7BBZDy9WpI-41" vertex="1">
          <mxGeometry y="172" width="240" height="26" as="geometry" />
        </mxCell>
        <mxCell id="yXv2WdkeAa7BBZDy9WpI-50" value="Fanfiction Collection" style="text;align=left;verticalAlign=top;spacingLeft=4;spacingRight=4;overflow=hidden;rotatable=0;points=[[0,0.5],[1,0.5]];portConstraint=eastwest;labelBackgroundColor=none;fillColor=default;strokeWidth=2;" parent="yXv2WdkeAa7BBZDy9WpI-41" vertex="1">
          <mxGeometry y="198" width="240" height="26" as="geometry" />
        </mxCell>
        <mxCell id="yXv2WdkeAa7BBZDy9WpI-51" value="Dedications" style="text;align=left;verticalAlign=top;spacingLeft=4;spacingRight=4;overflow=hidden;rotatable=0;points=[[0,0.5],[1,0.5]];portConstraint=eastwest;labelBackgroundColor=none;fillColor=default;strokeWidth=2;" parent="yXv2WdkeAa7BBZDy9WpI-41" vertex="1">
          <mxGeometry y="224" width="240" height="26" as="geometry" />
        </mxCell>
        <mxCell id="yXv2WdkeAa7BBZDy9WpI-52" value="About Me" style="text;align=left;verticalAlign=top;spacingLeft=4;spacingRight=4;overflow=hidden;rotatable=0;points=[[0,0.5],[1,0.5]];portConstraint=eastwest;labelBackgroundColor=none;fillColor=default;strokeWidth=2;" parent="yXv2WdkeAa7BBZDy9WpI-41" vertex="1">
          <mxGeometry y="250" width="240" height="26" as="geometry" />
        </mxCell>
        <mxCell id="yXv2WdkeAa7BBZDy9WpI-53" value="Socials" style="swimlane;fontStyle=3;align=center;verticalAlign=top;childLayout=stackLayout;horizontal=1;startSize=26;horizontalStack=0;resizeParent=1;resizeLast=0;collapsible=1;marginBottom=0;rounded=0;shadow=0;strokeWidth=2;labelBackgroundColor=none;fillColor=#f5f5f5;strokeColor=#666666;fontColor=#333333;" parent="1" vertex="1">
          <mxGeometry x="360" y="560" width="240" height="160" as="geometry">
            <mxRectangle x="230" y="140" width="160" height="26" as="alternateBounds" />
          </mxGeometry>
        </mxCell>
        <mxCell id="yXv2WdkeAa7BBZDy9WpI-54" value="Patreon" style="text;align=left;verticalAlign=top;spacingLeft=4;spacingRight=4;overflow=hidden;rotatable=0;points=[[0,0.5],[1,0.5]];portConstraint=eastwest;labelBackgroundColor=none;fontStyle=2;fillColor=default;strokeWidth=2;" parent="yXv2WdkeAa7BBZDy9WpI-53" vertex="1">
          <mxGeometry y="26" width="240" height="26" as="geometry" />
        </mxCell>
        <mxCell id="yXv2WdkeAa7BBZDy9WpI-55" value="Amazon" style="text;align=left;verticalAlign=top;spacingLeft=4;spacingRight=4;overflow=hidden;rotatable=0;points=[[0,0.5],[1,0.5]];portConstraint=eastwest;rounded=0;shadow=0;html=0;labelBackgroundColor=none;fontStyle=2;fillColor=default;strokeWidth=2;" parent="yXv2WdkeAa7BBZDy9WpI-53" vertex="1">
          <mxGeometry y="52" width="240" height="26" as="geometry" />
        </mxCell>
        <mxCell id="yXv2WdkeAa7BBZDy9WpI-56" value="Discord " style="text;align=left;verticalAlign=top;spacingLeft=4;spacingRight=4;overflow=hidden;rotatable=0;points=[[0,0.5],[1,0.5]];portConstraint=eastwest;rounded=0;shadow=0;html=0;labelBackgroundColor=none;fontStyle=2;fillColor=default;strokeWidth=2;" parent="yXv2WdkeAa7BBZDy9WpI-53" vertex="1">
          <mxGeometry y="78" width="240" height="26" as="geometry" />
        </mxCell>
        <mxCell id="yXv2WdkeAa7BBZDy9WpI-57" value="Twitter" style="text;align=left;verticalAlign=top;spacingLeft=4;spacingRight=4;overflow=hidden;rotatable=0;points=[[0,0.5],[1,0.5]];portConstraint=eastwest;rounded=0;shadow=0;html=0;labelBackgroundColor=none;fontStyle=2;fillColor=default;strokeWidth=2;" parent="yXv2WdkeAa7BBZDy9WpI-53" vertex="1">
          <mxGeometry y="104" width="240" height="26" as="geometry" />
        </mxCell>
        <mxCell id="yXv2WdkeAa7BBZDy9WpI-58" value="Instagram " style="text;align=left;verticalAlign=top;spacingLeft=4;spacingRight=4;overflow=hidden;rotatable=0;points=[[0,0.5],[1,0.5]];portConstraint=eastwest;rounded=0;shadow=0;html=0;labelBackgroundColor=none;fontStyle=2;fillColor=default;strokeWidth=2;" parent="yXv2WdkeAa7BBZDy9WpI-53" vertex="1">
          <mxGeometry y="130" width="240" height="30" as="geometry" />
        </mxCell>
        <mxCell id="2bh_bKUrlVSy6K9jnLVU-2" style="edgeStyle=orthogonalEdgeStyle;rounded=0;orthogonalLoop=1;jettySize=auto;html=1;entryX=0;entryY=0;entryDx=0;entryDy=0;fillColor=#a20025;strokeColor=#6F0000;strokeWidth=2;" parent="1" source="yXv2WdkeAa7BBZDy9WpI-4" target="yXv2WdkeAa7BBZDy9WpI-15" edge="1">
          <mxGeometry relative="1" as="geometry">
            <Array as="points">
              <mxPoint x="600" y="131" />
              <mxPoint x="600" y="60" />
              <mxPoint x="680" y="60" />
            </Array>
          </mxGeometry>
        </mxCell>
      </root>
    </mxGraphModel>
  </diagram>
  <diagram id="VHi9O_4B3oZn6lmJWK5S" name="Site Structure Matt">
    <mxGraphModel dx="3070" dy="868" grid="1" gridSize="10" guides="1" tooltips="1" connect="1" arrows="1" fold="1" page="1" pageScale="1" pageWidth="1654" pageHeight="1169" math="0" shadow="0">
      <root>
        <mxCell id="0" />
        <mxCell id="1" parent="0" />
        <mxCell id="fEZcs1ZXcKjMyy-Pqs5t-1" value="Home" style="swimlane;fontStyle=2;align=center;verticalAlign=top;childLayout=stackLayout;horizontal=1;startSize=26;horizontalStack=0;resizeParent=1;resizeLast=0;collapsible=1;marginBottom=0;rounded=0;shadow=0;strokeWidth=2;labelBackgroundColor=none;fillColor=#a20025;fontColor=#ffffff;strokeColor=#6F0000;" parent="1" vertex="1">
          <mxGeometry x="-1400" y="999" width="240" height="111" as="geometry">
            <mxRectangle x="550" y="140" width="160" height="26" as="alternateBounds" />
          </mxGeometry>
        </mxCell>
        <mxCell id="fEZcs1ZXcKjMyy-Pqs5t-2" value="Features?" style="text;align=left;verticalAlign=top;spacingLeft=4;spacingRight=4;overflow=hidden;rotatable=0;points=[[0,0.5],[1,0.5]];portConstraint=eastwest;rounded=0;shadow=0;html=0;labelBackgroundColor=none;fillColor=default;" parent="fEZcs1ZXcKjMyy-Pqs5t-1" vertex="1">
          <mxGeometry y="26" width="240" height="26" as="geometry" />
        </mxCell>
        <mxCell id="fEZcs1ZXcKjMyy-Pqs5t-3" value="Latest Release?" style="text;align=left;verticalAlign=top;spacingLeft=4;spacingRight=4;overflow=hidden;rotatable=0;points=[[0,0.5],[1,0.5]];portConstraint=eastwest;rounded=0;shadow=0;html=0;labelBackgroundColor=none;fillColor=default;" parent="fEZcs1ZXcKjMyy-Pqs5t-1" vertex="1">
          <mxGeometry y="52" width="240" height="26" as="geometry" />
        </mxCell>
        <mxCell id="fEZcs1ZXcKjMyy-Pqs5t-4" value="Announcements?" style="text;align=left;verticalAlign=top;spacingLeft=4;spacingRight=4;overflow=hidden;rotatable=0;points=[[0,0.5],[1,0.5]];portConstraint=eastwest;labelBackgroundColor=none;fillColor=default;" parent="fEZcs1ZXcKjMyy-Pqs5t-1" vertex="1">
          <mxGeometry y="78" width="240" height="26" as="geometry" />
        </mxCell>
        <mxCell id="fEZcs1ZXcKjMyy-Pqs5t-5" value="About Me" style="swimlane;fontStyle=2;align=center;verticalAlign=top;childLayout=stackLayout;horizontal=1;startSize=26;horizontalStack=0;resizeParent=1;resizeLast=0;collapsible=1;marginBottom=0;rounded=0;shadow=0;strokeWidth=2;labelBackgroundColor=none;fillColor=#6d8764;fontColor=#ffffff;strokeColor=#3A5431;" parent="1" vertex="1">
          <mxGeometry x="-1400" y="360" width="240" height="60" as="geometry">
            <mxRectangle x="550" y="140" width="160" height="26" as="alternateBounds" />
          </mxGeometry>
        </mxCell>
        <mxCell id="fEZcs1ZXcKjMyy-Pqs5t-6" value="Profile ramble and me links" style="text;align=left;verticalAlign=top;spacingLeft=4;spacingRight=4;overflow=hidden;rotatable=0;points=[[0,0.5],[1,0.5]];portConstraint=eastwest;rounded=0;shadow=0;html=0;labelBackgroundColor=none;fillColor=default;" parent="fEZcs1ZXcKjMyy-Pqs5t-5" vertex="1">
          <mxGeometry y="26" width="240" height="34" as="geometry" />
        </mxCell>
        <mxCell id="fEZcs1ZXcKjMyy-Pqs5t-7" value="Dedications" style="swimlane;fontStyle=2;align=center;verticalAlign=top;childLayout=stackLayout;horizontal=1;startSize=26;horizontalStack=0;resizeParent=1;resizeLast=0;collapsible=1;marginBottom=0;rounded=0;shadow=0;strokeWidth=1;labelBackgroundColor=none;fillColor=#6d8764;fontColor=#ffffff;strokeColor=#3A5431;" parent="1" vertex="1">
          <mxGeometry x="-1400" y="440" width="240" height="60" as="geometry">
            <mxRectangle x="550" y="140" width="160" height="26" as="alternateBounds" />
          </mxGeometry>
        </mxCell>
        <mxCell id="fEZcs1ZXcKjMyy-Pqs5t-8" value="Sam/Editors/Ali/Patrons" style="text;align=left;verticalAlign=top;spacingLeft=4;spacingRight=4;overflow=hidden;rotatable=0;points=[[0,0.5],[1,0.5]];portConstraint=eastwest;rounded=0;shadow=0;html=0;labelBackgroundColor=none;fillColor=default;" parent="fEZcs1ZXcKjMyy-Pqs5t-7" vertex="1">
          <mxGeometry y="26" width="240" height="34" as="geometry" />
        </mxCell>
        <mxCell id="fEZcs1ZXcKjMyy-Pqs5t-9" style="edgeStyle=none;curved=1;rounded=0;orthogonalLoop=1;jettySize=auto;html=1;exitX=0.5;exitY=0;exitDx=0;exitDy=0;strokeColor=#E07A5F;fontSize=12;fontColor=#393C56;startSize=8;endSize=8;fillColor=#F2CC8F;strokeWidth=2;" parent="1" edge="1">
          <mxGeometry relative="1" as="geometry">
            <mxPoint x="-1120" y="550.0000000000002" as="sourcePoint" />
            <mxPoint x="-1120" y="550.0000000000002" as="targetPoint" />
          </mxGeometry>
        </mxCell>
        <mxCell id="fEZcs1ZXcKjMyy-Pqs5t-10" value="Fanfiction Collection" style="swimlane;fontStyle=2;align=center;verticalAlign=top;childLayout=stackLayout;horizontal=1;startSize=26;horizontalStack=0;resizeParent=1;resizeLast=0;collapsible=1;marginBottom=0;rounded=0;shadow=0;strokeWidth=1;labelBackgroundColor=none;fillColor=#fa6800;fontColor=#000000;strokeColor=#C73500;" parent="1" vertex="1">
          <mxGeometry x="-1400" y="520" width="240" height="60" as="geometry">
            <mxRectangle x="550" y="140" width="160" height="26" as="alternateBounds" />
          </mxGeometry>
        </mxCell>
        <mxCell id="fEZcs1ZXcKjMyy-Pqs5t-11" value="Fanfiction summaries and Epubs" style="text;align=left;verticalAlign=top;spacingLeft=4;spacingRight=4;overflow=hidden;rotatable=0;points=[[0,0.5],[1,0.5]];portConstraint=eastwest;rounded=0;shadow=0;html=0;labelBackgroundColor=none;fillColor=default;" parent="fEZcs1ZXcKjMyy-Pqs5t-10" vertex="1">
          <mxGeometry y="26" width="240" height="26" as="geometry" />
        </mxCell>
        <mxCell id="fEZcs1ZXcKjMyy-Pqs5t-12" value="Nav Bar" style="swimlane;fontStyle=2;align=center;verticalAlign=top;childLayout=stackLayout;horizontal=1;startSize=26;horizontalStack=0;resizeParent=1;resizeLast=0;collapsible=1;marginBottom=0;rounded=0;shadow=0;strokeWidth=2;labelBackgroundColor=none;fillColor=#f5f5f5;fontColor=#333333;strokeColor=#666666;" parent="1" vertex="1">
          <mxGeometry x="-1400" y="40" width="240" height="276" as="geometry">
            <mxRectangle x="550" y="140" width="160" height="26" as="alternateBounds" />
          </mxGeometry>
        </mxCell>
        <mxCell id="fEZcs1ZXcKjMyy-Pqs5t-13" value="Home" style="text;align=left;verticalAlign=top;spacingLeft=4;spacingRight=4;overflow=hidden;rotatable=0;points=[[0,0.5],[1,0.5]];portConstraint=eastwest;rounded=0;shadow=0;html=0;labelBackgroundColor=none;fillColor=default;" parent="fEZcs1ZXcKjMyy-Pqs5t-12" vertex="1">
          <mxGeometry y="26" width="240" height="26" as="geometry" />
        </mxCell>
        <mxCell id="fEZcs1ZXcKjMyy-Pqs5t-14" value="" style="line;html=1;strokeWidth=1;align=left;verticalAlign=middle;spacingTop=-1;spacingLeft=3;spacingRight=3;rotatable=0;labelPosition=right;points=[];portConstraint=eastwest;labelBackgroundColor=none;fillColor=#f5f5f5;fontColor=#333333;strokeColor=#666666;" parent="fEZcs1ZXcKjMyy-Pqs5t-12" vertex="1">
          <mxGeometry y="52" width="240" height="8" as="geometry" />
        </mxCell>
        <mxCell id="fEZcs1ZXcKjMyy-Pqs5t-15" value="Original Novels" style="text;align=left;verticalAlign=top;spacingLeft=4;spacingRight=4;overflow=hidden;rotatable=0;points=[[0,0.5],[1,0.5]];portConstraint=eastwest;rounded=0;shadow=0;html=0;labelBackgroundColor=none;fillColor=default;" parent="fEZcs1ZXcKjMyy-Pqs5t-12" vertex="1">
          <mxGeometry y="60" width="240" height="26" as="geometry" />
        </mxCell>
        <mxCell id="fEZcs1ZXcKjMyy-Pqs5t-16" value="Original Web Serials" style="text;align=left;verticalAlign=top;spacingLeft=4;spacingRight=4;overflow=hidden;rotatable=0;points=[[0,0.5],[1,0.5]];portConstraint=eastwest;rounded=0;shadow=0;html=0;labelBackgroundColor=none;fillColor=default;" parent="fEZcs1ZXcKjMyy-Pqs5t-12" vertex="1">
          <mxGeometry y="86" width="240" height="26" as="geometry" />
        </mxCell>
        <mxCell id="fEZcs1ZXcKjMyy-Pqs5t-17" value="Original Novellas and Short Stories" style="text;align=left;verticalAlign=top;spacingLeft=4;spacingRight=4;overflow=hidden;rotatable=0;points=[[0,0.5],[1,0.5]];portConstraint=eastwest;rounded=0;shadow=0;html=0;labelBackgroundColor=none;fillColor=default;" parent="fEZcs1ZXcKjMyy-Pqs5t-12" vertex="1">
          <mxGeometry y="112" width="240" height="26" as="geometry" />
        </mxCell>
        <mxCell id="fEZcs1ZXcKjMyy-Pqs5t-18" value="" style="line;html=1;strokeWidth=1;align=left;verticalAlign=middle;spacingTop=-1;spacingLeft=3;spacingRight=3;rotatable=0;labelPosition=right;points=[];portConstraint=eastwest;labelBackgroundColor=none;fillColor=#f5f5f5;fontColor=#333333;strokeColor=#666666;" parent="fEZcs1ZXcKjMyy-Pqs5t-12" vertex="1">
          <mxGeometry y="138" width="240" height="8" as="geometry" />
        </mxCell>
        <mxCell id="fEZcs1ZXcKjMyy-Pqs5t-19" value="Fanfiction Web Serials" style="text;align=left;verticalAlign=top;spacingLeft=4;spacingRight=4;overflow=hidden;rotatable=0;points=[[0,0.5],[1,0.5]];portConstraint=eastwest;labelBackgroundColor=none;fillColor=default;" parent="fEZcs1ZXcKjMyy-Pqs5t-12" vertex="1">
          <mxGeometry y="146" width="240" height="26" as="geometry" />
        </mxCell>
        <mxCell id="fEZcs1ZXcKjMyy-Pqs5t-20" value="Fanfiction Novellas and Short Stories" style="text;align=left;verticalAlign=top;spacingLeft=4;spacingRight=4;overflow=hidden;rotatable=0;points=[[0,0.5],[1,0.5]];portConstraint=eastwest;labelBackgroundColor=none;fillColor=default;" parent="fEZcs1ZXcKjMyy-Pqs5t-12" vertex="1">
          <mxGeometry y="172" width="240" height="26" as="geometry" />
        </mxCell>
        <mxCell id="fEZcs1ZXcKjMyy-Pqs5t-21" value="Fanfiction Collection" style="text;align=left;verticalAlign=top;spacingLeft=4;spacingRight=4;overflow=hidden;rotatable=0;points=[[0,0.5],[1,0.5]];portConstraint=eastwest;labelBackgroundColor=none;fillColor=default;" parent="fEZcs1ZXcKjMyy-Pqs5t-12" vertex="1">
          <mxGeometry y="198" width="240" height="26" as="geometry" />
        </mxCell>
        <mxCell id="fEZcs1ZXcKjMyy-Pqs5t-22" value="Dedications" style="text;align=left;verticalAlign=top;spacingLeft=4;spacingRight=4;overflow=hidden;rotatable=0;points=[[0,0.5],[1,0.5]];portConstraint=eastwest;labelBackgroundColor=none;fillColor=default;" parent="fEZcs1ZXcKjMyy-Pqs5t-12" vertex="1">
          <mxGeometry y="224" width="240" height="26" as="geometry" />
        </mxCell>
        <mxCell id="fEZcs1ZXcKjMyy-Pqs5t-23" value="About Me" style="text;align=left;verticalAlign=top;spacingLeft=4;spacingRight=4;overflow=hidden;rotatable=0;points=[[0,0.5],[1,0.5]];portConstraint=eastwest;labelBackgroundColor=none;fillColor=default;" parent="fEZcs1ZXcKjMyy-Pqs5t-12" vertex="1">
          <mxGeometry y="250" width="240" height="26" as="geometry" />
        </mxCell>
        <mxCell id="fEZcs1ZXcKjMyy-Pqs5t-24" style="edgeStyle=orthogonalEdgeStyle;rounded=0;orthogonalLoop=1;jettySize=auto;html=1;exitX=0;exitY=0.5;exitDx=0;exitDy=0;entryX=0;entryY=0.5;entryDx=0;entryDy=0;strokeColor=#3A5431;fontSize=12;fontColor=#393C56;startSize=8;endSize=8;fillColor=#6d8764;strokeWidth=2;" parent="1" source="fEZcs1ZXcKjMyy-Pqs5t-23" target="fEZcs1ZXcKjMyy-Pqs5t-6" edge="1">
          <mxGeometry relative="1" as="geometry">
            <Array as="points">
              <mxPoint x="-1420" y="303" />
              <mxPoint x="-1420" y="403" />
            </Array>
          </mxGeometry>
        </mxCell>
        <mxCell id="fEZcs1ZXcKjMyy-Pqs5t-25" style="edgeStyle=orthogonalEdgeStyle;rounded=0;orthogonalLoop=1;jettySize=auto;html=1;exitX=0;exitY=0.5;exitDx=0;exitDy=0;entryX=0;entryY=0.5;entryDx=0;entryDy=0;strokeColor=#3A5431;fontSize=12;fontColor=#393C56;startSize=8;endSize=8;fillColor=#6d8764;strokeWidth=2;" parent="1" source="fEZcs1ZXcKjMyy-Pqs5t-22" target="fEZcs1ZXcKjMyy-Pqs5t-8" edge="1">
          <mxGeometry relative="1" as="geometry">
            <Array as="points">
              <mxPoint x="-1440" y="277" />
              <mxPoint x="-1440" y="483" />
            </Array>
          </mxGeometry>
        </mxCell>
        <mxCell id="fEZcs1ZXcKjMyy-Pqs5t-26" style="edgeStyle=orthogonalEdgeStyle;rounded=0;orthogonalLoop=1;jettySize=auto;html=1;exitX=0;exitY=0.5;exitDx=0;exitDy=0;entryX=0;entryY=0.5;entryDx=0;entryDy=0;strokeColor=#C73500;fontSize=12;fontColor=#393C56;startSize=8;endSize=8;fillColor=#fa6800;" parent="1" source="fEZcs1ZXcKjMyy-Pqs5t-21" target="fEZcs1ZXcKjMyy-Pqs5t-11" edge="1">
          <mxGeometry relative="1" as="geometry">
            <Array as="points">
              <mxPoint x="-1460" y="251" />
              <mxPoint x="-1460" y="559" />
            </Array>
          </mxGeometry>
        </mxCell>
        <mxCell id="fEZcs1ZXcKjMyy-Pqs5t-27" style="edgeStyle=orthogonalEdgeStyle;rounded=0;orthogonalLoop=1;jettySize=auto;html=1;exitX=1;exitY=0.5;exitDx=0;exitDy=0;entryX=0;entryY=0.5;entryDx=0;entryDy=0;strokeColor=#006EAF;fontSize=12;fontColor=#393C56;startSize=8;endSize=8;fillColor=#1ba1e2;strokeWidth=2;" parent="1" source="fEZcs1ZXcKjMyy-Pqs5t-28" target="fEZcs1ZXcKjMyy-Pqs5t-47" edge="1">
          <mxGeometry relative="1" as="geometry" />
        </mxCell>
        <mxCell id="fEZcs1ZXcKjMyy-Pqs5t-28" value="Fanfiction Novellas and Short Stories" style="swimlane;fontStyle=2;align=center;verticalAlign=top;childLayout=stackLayout;horizontal=1;startSize=26;horizontalStack=0;resizeParent=1;resizeLast=0;collapsible=1;marginBottom=0;rounded=0;shadow=0;strokeWidth=2;labelBackgroundColor=none;fillColor=#76608a;fontColor=#ffffff;strokeColor=#432D57;" parent="1" vertex="1">
          <mxGeometry x="-1400" y="600" width="240" height="60" as="geometry">
            <mxRectangle x="550" y="140" width="160" height="26" as="alternateBounds" />
          </mxGeometry>
        </mxCell>
        <mxCell id="fEZcs1ZXcKjMyy-Pqs5t-29" value="Story summaries and links" style="text;align=left;verticalAlign=top;spacingLeft=4;spacingRight=4;overflow=hidden;rotatable=0;points=[[0,0.5],[1,0.5]];portConstraint=eastwest;rounded=0;shadow=0;html=0;labelBackgroundColor=none;fillColor=default;" parent="fEZcs1ZXcKjMyy-Pqs5t-28" vertex="1">
          <mxGeometry y="26" width="240" height="26" as="geometry" />
        </mxCell>
        <mxCell id="fEZcs1ZXcKjMyy-Pqs5t-30" style="edgeStyle=orthogonalEdgeStyle;rounded=0;orthogonalLoop=1;jettySize=auto;html=1;exitX=0;exitY=0.5;exitDx=0;exitDy=0;entryX=0;entryY=0.5;entryDx=0;entryDy=0;strokeColor=#432D57;fontSize=12;fontColor=#393C56;startSize=8;endSize=8;fillColor=#76608a;strokeWidth=2;" parent="1" source="fEZcs1ZXcKjMyy-Pqs5t-20" target="fEZcs1ZXcKjMyy-Pqs5t-28" edge="1">
          <mxGeometry relative="1" as="geometry">
            <Array as="points">
              <mxPoint x="-1480" y="225" />
              <mxPoint x="-1480" y="630" />
            </Array>
          </mxGeometry>
        </mxCell>
        <mxCell id="fEZcs1ZXcKjMyy-Pqs5t-31" value="Fanfiction Web Serials" style="swimlane;fontStyle=2;align=center;verticalAlign=top;childLayout=stackLayout;horizontal=1;startSize=26;horizontalStack=0;resizeParent=1;resizeLast=0;collapsible=1;marginBottom=0;rounded=0;shadow=0;strokeWidth=2;labelBackgroundColor=none;fillColor=#76608a;fontColor=#ffffff;strokeColor=#432D57;" parent="1" vertex="1">
          <mxGeometry x="-1400" y="680" width="240" height="60" as="geometry">
            <mxRectangle x="550" y="140" width="160" height="26" as="alternateBounds" />
          </mxGeometry>
        </mxCell>
        <mxCell id="fEZcs1ZXcKjMyy-Pqs5t-32" style="edgeStyle=orthogonalEdgeStyle;rounded=0;orthogonalLoop=1;jettySize=auto;html=1;exitX=0;exitY=0.5;exitDx=0;exitDy=0;entryX=0;entryY=0.5;entryDx=0;entryDy=0;strokeColor=#432D57;fontSize=12;fontColor=#393C56;startSize=8;endSize=8;fillColor=#76608a;strokeWidth=2;" parent="1" source="fEZcs1ZXcKjMyy-Pqs5t-19" target="fEZcs1ZXcKjMyy-Pqs5t-31" edge="1">
          <mxGeometry relative="1" as="geometry">
            <Array as="points">
              <mxPoint x="-1500" y="199" />
              <mxPoint x="-1500" y="710" />
            </Array>
          </mxGeometry>
        </mxCell>
        <mxCell id="fEZcs1ZXcKjMyy-Pqs5t-33" style="edgeStyle=none;curved=1;rounded=0;orthogonalLoop=1;jettySize=auto;html=1;exitX=1;exitY=0.5;exitDx=0;exitDy=0;entryX=0;entryY=0.5;entryDx=0;entryDy=0;strokeColor=#005700;fontSize=12;fontColor=#393C56;startSize=8;endSize=8;fillColor=#008a00;strokeWidth=2;" parent="1" source="fEZcs1ZXcKjMyy-Pqs5t-34" target="fEZcs1ZXcKjMyy-Pqs5t-50" edge="1">
          <mxGeometry relative="1" as="geometry" />
        </mxCell>
        <mxCell id="fEZcs1ZXcKjMyy-Pqs5t-34" value="Story Summaries and Story Links" style="text;align=left;verticalAlign=top;spacingLeft=4;spacingRight=4;overflow=hidden;rotatable=0;points=[[0,0.5],[1,0.5]];portConstraint=eastwest;rounded=0;shadow=0;html=0;labelBackgroundColor=none;fillColor=default;" parent="1" vertex="1">
          <mxGeometry x="-1400" y="706" width="240" height="26" as="geometry" />
        </mxCell>
        <mxCell id="fEZcs1ZXcKjMyy-Pqs5t-35" value="Original Novellas and Short Stories " style="swimlane;fontStyle=2;align=center;verticalAlign=top;childLayout=stackLayout;horizontal=1;startSize=26;horizontalStack=0;resizeParent=1;resizeLast=0;collapsible=1;marginBottom=0;rounded=0;shadow=0;strokeWidth=2;labelBackgroundColor=none;fillColor=#76608a;fontColor=#ffffff;strokeColor=#432D57;" parent="1" vertex="1">
          <mxGeometry x="-1400" y="760" width="240" height="60" as="geometry">
            <mxRectangle x="550" y="140" width="160" height="26" as="alternateBounds" />
          </mxGeometry>
        </mxCell>
        <mxCell id="fEZcs1ZXcKjMyy-Pqs5t-36" style="edgeStyle=orthogonalEdgeStyle;rounded=0;orthogonalLoop=1;jettySize=auto;html=1;exitX=0;exitY=0.5;exitDx=0;exitDy=0;entryX=0;entryY=0.5;entryDx=0;entryDy=0;strokeColor=#432D57;fontSize=12;fontColor=#393C56;startSize=8;endSize=8;fillColor=#76608a;strokeWidth=2;" parent="1" source="fEZcs1ZXcKjMyy-Pqs5t-17" target="fEZcs1ZXcKjMyy-Pqs5t-38" edge="1">
          <mxGeometry relative="1" as="geometry">
            <Array as="points">
              <mxPoint x="-1520" y="165" />
              <mxPoint x="-1520" y="799" />
            </Array>
          </mxGeometry>
        </mxCell>
        <mxCell id="fEZcs1ZXcKjMyy-Pqs5t-37" style="edgeStyle=none;curved=1;rounded=0;orthogonalLoop=1;jettySize=auto;html=1;exitX=1;exitY=0.5;exitDx=0;exitDy=0;entryX=0;entryY=0.5;entryDx=0;entryDy=0;strokeColor=#006EAF;fontSize=12;fontColor=#393C56;startSize=8;endSize=8;fillColor=#1ba1e2;strokeWidth=2;" parent="1" source="fEZcs1ZXcKjMyy-Pqs5t-38" target="fEZcs1ZXcKjMyy-Pqs5t-52" edge="1">
          <mxGeometry relative="1" as="geometry">
            <Array as="points">
              <mxPoint x="-1100" y="800" />
            </Array>
          </mxGeometry>
        </mxCell>
        <mxCell id="fEZcs1ZXcKjMyy-Pqs5t-38" value="Story Summaries and Story Links" style="text;align=left;verticalAlign=top;spacingLeft=4;spacingRight=4;overflow=hidden;rotatable=0;points=[[0,0.5],[1,0.5]];portConstraint=eastwest;rounded=0;shadow=0;html=0;labelBackgroundColor=none;fillColor=default;" parent="1" vertex="1">
          <mxGeometry x="-1400" y="786" width="240" height="26" as="geometry" />
        </mxCell>
        <mxCell id="fEZcs1ZXcKjMyy-Pqs5t-39" value="Original Web Serials" style="swimlane;fontStyle=2;align=center;verticalAlign=top;childLayout=stackLayout;horizontal=1;startSize=26;horizontalStack=0;resizeParent=1;resizeLast=0;collapsible=1;marginBottom=0;rounded=0;shadow=0;strokeWidth=2;labelBackgroundColor=none;fillColor=#76608a;fontColor=#ffffff;strokeColor=#432D57;" parent="1" vertex="1">
          <mxGeometry x="-1400" y="840" width="240" height="60" as="geometry">
            <mxRectangle x="550" y="140" width="160" height="26" as="alternateBounds" />
          </mxGeometry>
        </mxCell>
        <mxCell id="fEZcs1ZXcKjMyy-Pqs5t-40" value="Story Summaries and Story Links" style="text;align=left;verticalAlign=top;spacingLeft=4;spacingRight=4;overflow=hidden;rotatable=0;points=[[0,0.5],[1,0.5]];portConstraint=eastwest;rounded=0;shadow=0;html=0;labelBackgroundColor=none;fillColor=default;" parent="fEZcs1ZXcKjMyy-Pqs5t-39" vertex="1">
          <mxGeometry y="26" width="240" height="26" as="geometry" />
        </mxCell>
        <mxCell id="fEZcs1ZXcKjMyy-Pqs5t-41" style="edgeStyle=orthogonalEdgeStyle;rounded=0;orthogonalLoop=1;jettySize=auto;html=1;exitX=0;exitY=0.5;exitDx=0;exitDy=0;entryX=0;entryY=0.5;entryDx=0;entryDy=0;strokeColor=#432D57;fontSize=12;fontColor=#393C56;startSize=8;endSize=8;fillColor=#76608a;strokeWidth=2;" parent="1" source="fEZcs1ZXcKjMyy-Pqs5t-16" target="fEZcs1ZXcKjMyy-Pqs5t-39" edge="1">
          <mxGeometry relative="1" as="geometry">
            <Array as="points">
              <mxPoint x="-1540" y="139" />
              <mxPoint x="-1540" y="870" />
            </Array>
          </mxGeometry>
        </mxCell>
        <mxCell id="fEZcs1ZXcKjMyy-Pqs5t-42" value="Original Novels " style="swimlane;fontStyle=2;align=center;verticalAlign=top;childLayout=stackLayout;horizontal=1;startSize=26;horizontalStack=0;resizeParent=1;resizeLast=0;collapsible=1;marginBottom=0;rounded=0;shadow=0;strokeWidth=1;labelBackgroundColor=none;fillColor=#fa6800;fontColor=#000000;strokeColor=#C73500;" parent="1" vertex="1">
          <mxGeometry x="-1400" y="920" width="240" height="60" as="geometry">
            <mxRectangle x="550" y="140" width="160" height="26" as="alternateBounds" />
          </mxGeometry>
        </mxCell>
        <mxCell id="fEZcs1ZXcKjMyy-Pqs5t-43" value="Novel Summaries and Links " style="text;align=left;verticalAlign=top;spacingLeft=4;spacingRight=4;overflow=hidden;rotatable=0;points=[[0,0.5],[1,0.5]];portConstraint=eastwest;rounded=0;shadow=0;html=0;labelBackgroundColor=none;fillColor=default;" parent="fEZcs1ZXcKjMyy-Pqs5t-42" vertex="1">
          <mxGeometry y="26" width="240" height="34" as="geometry" />
        </mxCell>
        <mxCell id="fEZcs1ZXcKjMyy-Pqs5t-44" style="edgeStyle=orthogonalEdgeStyle;rounded=0;orthogonalLoop=1;jettySize=auto;html=1;exitX=0;exitY=0.5;exitDx=0;exitDy=0;strokeColor=#C73500;fontSize=12;fontColor=#393C56;startSize=8;endSize=8;fillColor=#fa6800;" parent="1" source="fEZcs1ZXcKjMyy-Pqs5t-15" edge="1">
          <mxGeometry relative="1" as="geometry">
            <mxPoint x="-1400" y="960" as="targetPoint" />
            <Array as="points">
              <mxPoint x="-1560" y="113" />
              <mxPoint x="-1560" y="959" />
            </Array>
          </mxGeometry>
        </mxCell>
        <mxCell id="fEZcs1ZXcKjMyy-Pqs5t-45" style="edgeStyle=orthogonalEdgeStyle;rounded=0;orthogonalLoop=1;jettySize=auto;html=1;exitX=0;exitY=0.5;exitDx=0;exitDy=0;strokeColor=#6F0000;fontSize=12;fontColor=#393C56;startSize=8;endSize=8;fillColor=#a20025;entryX=0;entryY=0.962;entryDx=0;entryDy=0;entryPerimeter=0;strokeWidth=2;" parent="1" source="fEZcs1ZXcKjMyy-Pqs5t-13" target="fEZcs1ZXcKjMyy-Pqs5t-2" edge="1">
          <mxGeometry relative="1" as="geometry">
            <mxPoint x="-1400" y="1090" as="targetPoint" />
            <Array as="points">
              <mxPoint x="-1580" y="79" />
              <mxPoint x="-1580" y="1050" />
            </Array>
          </mxGeometry>
        </mxCell>
        <mxCell id="fEZcs1ZXcKjMyy-Pqs5t-46" style="edgeStyle=none;curved=1;rounded=0;orthogonalLoop=1;jettySize=auto;html=1;exitX=0.5;exitY=0;exitDx=0;exitDy=0;strokeColor=#E07A5F;fontSize=12;fontColor=#393C56;startSize=8;endSize=8;fillColor=#F2CC8F;" parent="1" source="fEZcs1ZXcKjMyy-Pqs5t-1" target="fEZcs1ZXcKjMyy-Pqs5t-1" edge="1">
          <mxGeometry relative="1" as="geometry" />
        </mxCell>
        <mxCell id="fEZcs1ZXcKjMyy-Pqs5t-47" value="Fanfiction Novellas and Short Stories" style="swimlane;fontStyle=2;align=center;verticalAlign=top;childLayout=stackLayout;horizontal=1;startSize=26;horizontalStack=0;resizeParent=1;resizeLast=0;collapsible=1;marginBottom=0;rounded=0;shadow=0;strokeWidth=2;labelBackgroundColor=none;fillColor=#1ba1e2;fontColor=#ffffff;strokeColor=#006EAF;" parent="1" vertex="1">
          <mxGeometry x="-1080" y="600" width="240" height="60" as="geometry">
            <mxRectangle x="550" y="140" width="160" height="26" as="alternateBounds" />
          </mxGeometry>
        </mxCell>
        <mxCell id="fEZcs1ZXcKjMyy-Pqs5t-48" value="Comments etc" style="text;align=left;verticalAlign=top;spacingLeft=4;spacingRight=4;overflow=hidden;rotatable=0;points=[[0,0.5],[1,0.5]];portConstraint=eastwest;rounded=0;shadow=0;html=0;labelBackgroundColor=none;strokeWidth=2;fillColor=default;" parent="fEZcs1ZXcKjMyy-Pqs5t-47" vertex="1">
          <mxGeometry y="26" width="240" height="26" as="geometry" />
        </mxCell>
        <mxCell id="fEZcs1ZXcKjMyy-Pqs5t-49" value="ACVR/ASttS" style="swimlane;fontStyle=2;align=center;verticalAlign=top;childLayout=stackLayout;horizontal=1;startSize=26;horizontalStack=0;resizeParent=1;resizeLast=0;collapsible=1;marginBottom=0;rounded=0;shadow=0;strokeWidth=2;labelBackgroundColor=none;fillColor=#008a00;fontColor=#ffffff;strokeColor=#005700;" parent="1" vertex="1">
          <mxGeometry x="-1080" y="680" width="240" height="60" as="geometry">
            <mxRectangle x="550" y="140" width="160" height="26" as="alternateBounds" />
          </mxGeometry>
        </mxCell>
        <mxCell id="fEZcs1ZXcKjMyy-Pqs5t-50" value="Chapters" style="text;align=left;verticalAlign=top;spacingLeft=4;spacingRight=4;overflow=hidden;rotatable=0;points=[[0,0.5],[1,0.5]];portConstraint=eastwest;rounded=0;shadow=0;html=0;labelBackgroundColor=none;strokeWidth=2;fillColor=default;" parent="fEZcs1ZXcKjMyy-Pqs5t-49" vertex="1">
          <mxGeometry y="26" width="240" height="26" as="geometry" />
        </mxCell>
        <mxCell id="fEZcs1ZXcKjMyy-Pqs5t-51" value="Original Novellas and Short Stories" style="swimlane;fontStyle=2;align=center;verticalAlign=top;childLayout=stackLayout;horizontal=1;startSize=26;horizontalStack=0;resizeParent=1;resizeLast=0;collapsible=1;marginBottom=0;rounded=0;shadow=0;strokeWidth=2;labelBackgroundColor=none;fillColor=#1ba1e2;fontColor=#ffffff;strokeColor=#006EAF;" parent="1" vertex="1">
          <mxGeometry x="-1080" y="760" width="240" height="60" as="geometry">
            <mxRectangle x="550" y="140" width="160" height="26" as="alternateBounds" />
          </mxGeometry>
        </mxCell>
        <mxCell id="fEZcs1ZXcKjMyy-Pqs5t-52" value="Comments etc" style="text;align=left;verticalAlign=top;spacingLeft=4;spacingRight=4;overflow=hidden;rotatable=0;points=[[0,0.5],[1,0.5]];portConstraint=eastwest;rounded=0;shadow=0;html=0;labelBackgroundColor=none;strokeWidth=2;fillColor=default;" parent="fEZcs1ZXcKjMyy-Pqs5t-51" vertex="1">
          <mxGeometry y="26" width="240" height="26" as="geometry" />
        </mxCell>
        <mxCell id="fEZcs1ZXcKjMyy-Pqs5t-53" value="ACVR Parts/ASttS Chapters" style="swimlane;fontStyle=2;align=center;verticalAlign=top;childLayout=stackLayout;horizontal=1;startSize=26;horizontalStack=0;resizeParent=1;resizeLast=0;collapsible=1;marginBottom=0;rounded=0;shadow=0;strokeWidth=2;labelBackgroundColor=none;fillColor=#1ba1e2;fontColor=#ffffff;strokeColor=#006EAF;" parent="1" vertex="1">
          <mxGeometry x="-760" y="680" width="240" height="60" as="geometry">
            <mxRectangle x="550" y="140" width="160" height="26" as="alternateBounds" />
          </mxGeometry>
        </mxCell>
        <mxCell id="fEZcs1ZXcKjMyy-Pqs5t-54" value="Comments etc" style="text;align=left;verticalAlign=top;spacingLeft=4;spacingRight=4;overflow=hidden;rotatable=0;points=[[0,0.5],[1,0.5]];portConstraint=eastwest;rounded=0;shadow=0;html=0;labelBackgroundColor=none;strokeWidth=2;fillColor=default;" parent="fEZcs1ZXcKjMyy-Pqs5t-53" vertex="1">
          <mxGeometry y="26" width="240" height="26" as="geometry" />
        </mxCell>
        <mxCell id="fEZcs1ZXcKjMyy-Pqs5t-55" style="edgeStyle=none;curved=1;rounded=0;orthogonalLoop=1;jettySize=auto;html=1;exitX=1;exitY=0.5;exitDx=0;exitDy=0;entryX=0;entryY=0.5;entryDx=0;entryDy=0;strokeColor=#006EAF;fontSize=12;fontColor=#393C56;startSize=8;endSize=8;fillColor=#1ba1e2;strokeWidth=2;" parent="1" source="fEZcs1ZXcKjMyy-Pqs5t-50" target="fEZcs1ZXcKjMyy-Pqs5t-54" edge="1">
          <mxGeometry relative="1" as="geometry" />
        </mxCell>
        <mxCell id="fEZcs1ZXcKjMyy-Pqs5t-56" value="TLR/TSotM" style="swimlane;fontStyle=2;align=center;verticalAlign=top;childLayout=stackLayout;horizontal=1;startSize=26;horizontalStack=0;resizeParent=1;resizeLast=0;collapsible=1;marginBottom=0;rounded=0;shadow=0;strokeWidth=2;labelBackgroundColor=none;fillColor=#008a00;fontColor=#ffffff;strokeColor=#005700;" parent="1" vertex="1">
          <mxGeometry x="-1080" y="840" width="240" height="60" as="geometry">
            <mxRectangle x="550" y="140" width="160" height="26" as="alternateBounds" />
          </mxGeometry>
        </mxCell>
        <mxCell id="fEZcs1ZXcKjMyy-Pqs5t-57" value="Chapters" style="text;align=left;verticalAlign=top;spacingLeft=4;spacingRight=4;overflow=hidden;rotatable=0;points=[[0,0.5],[1,0.5]];portConstraint=eastwest;rounded=0;shadow=0;html=0;labelBackgroundColor=none;strokeWidth=2;fillColor=default;" parent="fEZcs1ZXcKjMyy-Pqs5t-56" vertex="1">
          <mxGeometry y="26" width="240" height="26" as="geometry" />
        </mxCell>
        <mxCell id="fEZcs1ZXcKjMyy-Pqs5t-58" style="edgeStyle=none;curved=1;rounded=0;orthogonalLoop=1;jettySize=auto;html=1;exitX=1;exitY=0.5;exitDx=0;exitDy=0;strokeColor=#005700;fontSize=12;fontColor=#393C56;startSize=8;endSize=8;fillColor=#008a00;entryX=0;entryY=0.5;entryDx=0;entryDy=0;strokeWidth=2;" parent="1" source="fEZcs1ZXcKjMyy-Pqs5t-40" target="fEZcs1ZXcKjMyy-Pqs5t-57" edge="1">
          <mxGeometry relative="1" as="geometry">
            <mxPoint x="-1110" y="870" as="targetPoint" />
          </mxGeometry>
        </mxCell>
        <mxCell id="fEZcs1ZXcKjMyy-Pqs5t-59" value="TLR/TSotM Chapters" style="swimlane;fontStyle=2;align=center;verticalAlign=top;childLayout=stackLayout;horizontal=1;startSize=26;horizontalStack=0;resizeParent=1;resizeLast=0;collapsible=1;marginBottom=0;rounded=0;shadow=0;strokeWidth=2;labelBackgroundColor=none;fillColor=#1ba1e2;fontColor=#ffffff;strokeColor=#006EAF;" parent="1" vertex="1">
          <mxGeometry x="-760" y="840" width="240" height="60" as="geometry">
            <mxRectangle x="550" y="140" width="160" height="26" as="alternateBounds" />
          </mxGeometry>
        </mxCell>
        <mxCell id="fEZcs1ZXcKjMyy-Pqs5t-60" value="Comments etc" style="text;align=left;verticalAlign=top;spacingLeft=4;spacingRight=4;overflow=hidden;rotatable=0;points=[[0,0.5],[1,0.5]];portConstraint=eastwest;rounded=0;shadow=0;html=0;labelBackgroundColor=none;strokeWidth=2;fillColor=default;" parent="fEZcs1ZXcKjMyy-Pqs5t-59" vertex="1">
          <mxGeometry y="26" width="240" height="26" as="geometry" />
        </mxCell>
        <mxCell id="fEZcs1ZXcKjMyy-Pqs5t-61" style="edgeStyle=none;curved=1;rounded=0;orthogonalLoop=1;jettySize=auto;html=1;exitX=1;exitY=0.5;exitDx=0;exitDy=0;entryX=0;entryY=0.5;entryDx=0;entryDy=0;strokeColor=#006EAF;fontSize=12;fontColor=#393C56;startSize=8;endSize=8;fillColor=#1ba1e2;strokeWidth=2;" parent="1" source="fEZcs1ZXcKjMyy-Pqs5t-57" target="fEZcs1ZXcKjMyy-Pqs5t-60" edge="1">
          <mxGeometry relative="1" as="geometry" />
        </mxCell>
      </root>
    </mxGraphModel>
  </diagram>
</mxfile>
